
        <svg xmlns="http://www.w3.org/2000/svg" xmlns:xlink="http://www.w3.org/1999/xlink" version="1.1" width="3285.757529314461" height="744.1107960309234" viewBox="0 0 3285.757529314461 744.1107960309234">
			
			<g transform="scale(14.28787646572305) translate(10, 10)">
				<defs id="SvgjsDefs1197"/><g id="SvgjsG1198" featureKey="nameLeftFeature-0" transform="matrix(0.8017516105503872,0,0,0.8017516105503872,9,-9.139968054430447)" fill="#000"><path d="M5.68 29.8 c-2.48 0 -4.52 2 -4.52 4.52 c0 2.48 2.04 4.48 4.52 4.48 s4.52 -2 4.52 -4.48 c0 -2.52 -2.04 -4.52 -4.52 -4.52 z M5.68 28.64 c3.12 0 5.68 2.52 5.68 5.68 c0 3.12 -2.56 5.68 -5.68 5.68 c-3.16 0 -5.68 -2.56 -5.68 -5.68 c0 -3.16 2.52 -5.68 5.68 -5.68 z M26.75 37.48 l0.8 0.84 c-2.2 2.2 -5.8 2.2 -8.04 0 c-2.2 -2.2 -2.2 -5.8 0 -8.04 c2.24 -2.2 5.84 -2.2 8.04 0 l-0.8 0.84 c-1.76 -1.76 -4.64 -1.76 -6.4 0 s-1.76 4.6 0 6.36 s4.64 1.76 6.4 0 z M36.18000000000001 37.88 c1.76 1.36 4.32 1.24 5.96 -0.4 l0.8 0.84 c-2.2 2.2 -5.8 2.2 -8.04 0 c-2.2 -2.2 -2.2 -5.8 0 -8.04 c2.08 -2.08 5.4 -2.2 7.6 -0.4 l0.04 0 c0.4 0.4 0.4 0.4 0.84 0.8 z M35.74000000000001 31.119999999999997 c-1.6 1.6 -1.76 4.16 -0.4 5.92 l6.36 -6.32 c-1.76 -1.36 -4.32 -1.24 -5.96 0.4 z M60.05000000000001 28.64 l1.16 0 l0 11.36 l-1.16 0 l0 -2.24 c-1.04 1.36 -2.68 2.24 -4.52 2.24 c-3.16 0 -5.68 -2.56 -5.68 -5.68 c0 -3.16 2.52 -5.68 5.68 -5.68 c1.84 0 3.48 0.84 4.52 2.2 l0 -2.2 z M55.53000000000001 38.8 c2.48 0 4.52 -2 4.52 -4.48 c0 -2.52 -2.04 -4.52 -4.52 -4.52 s-4.52 2 -4.52 4.52 c0 2.48 2.04 4.48 4.52 4.48 z M79.04 34.32 l0 5.68 l-1.16 0 l0 -5.68 c0 -2.52 -2.04 -4.52 -4.52 -4.52 s-4.52 2 -4.52 4.52 l0 5.68 l-1.16 0 l0 -11.36 l1.16 0 l0 2.2 c1.04 -1.36 2.68 -2.2 4.52 -2.2 c3.12 0 5.68 2.52 5.68 5.68 z"/></g><g id="SvgjsG1199" featureKey="inlineSymbolFeature-0" transform="matrix(0.9264571413487951,0,0,0.9264571413487951,86.53677137410445,9.351480067321223)" fill="#000"><title xmlns="http://www.w3.org/2000/svg">404-stain</title><desc xmlns="http://www.w3.org/2000/svg">Created with Sketch.</desc><g xmlns="http://www.w3.org/2000/svg" stroke="none" stroke-width="1" fill-rule="evenodd"><g><path d="M1.88268788,8.36975139 C1.87646231,8.37390177 1.86885329,8.37580402 1.85899615,8.37338297 C1.86816156,8.37321004 1.87577058,8.37130778 1.88268788,8.36975139 L1.88268788,8.36975139 Z M6.59699615,3.22051831 L6.59682322,3.22051831 L6.59543976,3.21913485 C6.59595855,3.21965365 6.59647735,3.22017244 6.59699615,3.22051831 L6.59699615,3.22051831 Z M10.6396352,22.2792176 C10.6372142,22.2795634 10.6360037,22.2814657 10.6339285,22.2821574 L10.6344473,22.2740296 C10.6360037,22.2759318 10.6380789,22.2773153 10.6396352,22.2792176 L10.6396352,22.2792176 Z M14.8897931,3.76663861 C14.9297405,3.80848823 14.9788533,3.80451079 15.0312518,3.78202959 C15.1282668,3.74035289 15.1829134,3.75885665 15.2396352,3.84393936 C15.2615977,3.87748823 15.2903044,3.90999951 15.3273119,3.91881906 C15.4073796,3.93801455 15.4699811,3.99525515 15.5441691,4.01860101 C15.7620638,4.08690928 15.9436428,4.22525515 16.1494322,4.31639049 C16.2585525,4.36481154 16.3735525,4.39075139 16.4703946,4.48932282 C16.5549586,4.57475139 16.6976277,4.62213485 16.8316503,4.64496192 C16.9819285,4.70237545 17.077733,4.85714989 17.2498007,4.87530778 C17.2549886,4.87582658 17.2608683,4.88136041 17.2638082,4.88602959 C17.2989134,4.94378898 17.3570187,4.98684913 17.3867631,5.0439168 C17.4159886,5.09977395 17.4548984,5.12588673 17.5057405,5.15390177 C17.5527781,5.18001455 17.609327,5.19056342 17.6231616,5.27253334 C17.6411465,5.37957846 17.7142969,5.41399199 17.7954022,5.39012733 C17.921124,5.35311981 17.9494849,5.37854086 17.9242367,5.50772131 C17.9190488,5.53366116 17.9065977,5.57896944 17.9358232,5.57654838 C18.03353,5.56772883 18.0594698,5.65073635 18.1065074,5.70002207 C18.1673796,5.76417996 18.2346503,5.82972131 18.2555751,5.92068372 C18.2678533,5.97498447 18.3057255,6.00075139 18.3413495,6.03758598 C18.4210713,6.11990177 18.5357255,6.15708222 18.6042067,6.24890928 C18.6361992,6.29145064 18.7053721,6.27260101 18.720936,6.32154086 C18.7406503,6.38396944 18.7878608,6.42080402 18.8371465,6.43948071 C18.9135826,6.46922507 18.9336428,6.54894688 18.9958984,6.58924011 C19.0242593,6.60774387 19.0315225,6.6485559 19.0354999,6.68642808 C19.0436277,6.76372883 19.1157405,6.81336041 19.1290563,6.89169876 C19.1337255,6.91798447 19.1693495,6.92057846 19.1990939,6.91054838 C19.2222668,6.90276643 19.2444022,6.90899199 19.2376578,6.93994688 C19.2233044,7.00617996 19.2795074,7.02814237 19.313748,7.06117244 C19.4137029,7.15766868 19.4846052,7.27647319 19.5401164,7.39856342 C19.5802367,7.48641304 19.6134398,7.57339801 19.6836503,7.64118748 C19.6999059,7.66314989 19.7350112,7.65986417 19.740545,7.70188673 C19.7517856,7.79544312 19.7714999,7.88934537 19.8749134,7.93275139 C19.8906503,7.93949575 19.9063871,7.96076643 19.8984322,7.97754086 C19.8507029,8.07801455 19.9266202,8.12678147 19.9831691,8.18160101 C20.0303796,8.22794688 20.0566653,8.29400703 20.0426578,8.345195 C20.0262292,8.40433786 20.0426578,8.43805966 20.0760337,8.47230026 C20.1149435,8.51293936 20.1403646,8.56032282 20.1484924,8.61410477 C20.1574849,8.6720371 20.1920713,8.70454838 20.2314999,8.74414989 C20.3056879,8.81851079 20.3935375,8.89511981 20.3516879,9.0239544 C20.3464999,9.0405559 20.3586052,9.06493936 20.3674247,9.08309725 C20.3881766,9.1266762 20.3899059,9.17042808 20.3682894,9.21262357 C20.3420037,9.26415741 20.353936,9.30012733 20.4089285,9.31690177 C20.4644398,9.33384913 20.4744698,9.37085665 20.4820789,9.42498447 C20.4926277,9.49830778 20.4659961,9.58027771 20.5241014,9.64633786 C20.5835901,9.7134356 20.6173119,9.79436793 20.6382367,9.8808341 C20.6391014,9.88117996 20.6391014,9.88187169 20.6399661,9.88239049 C20.6358157,9.88498447 20.632357,9.88654086 20.627342,9.89242056 C20.6086653,9.9380747 20.6276879,9.97923259 20.6404849,10.0229845 C20.6806052,10.159601 20.7518533,10.287398 20.7485676,10.4371574 C20.7471841,10.5085785 20.7722593,10.576195 20.821545,10.6355108 C20.9424247,10.7807739 21.0019134,10.9424657 20.9304924,11.1316536 C20.9242668,11.1479093 20.93153,11.1683153 20.9277255,11.1854356 C20.9045525,11.284007 20.9887706,11.3626912 20.974936,11.4642025 C20.967327,11.5186762 20.9600638,11.5762627 20.9591992,11.6329845 C20.9559134,11.8173303 20.9880789,11.99718 21.0309661,12.1749544 C21.038748,12.2076386 21.0487781,12.2403228 21.036327,12.2721424 C21.0095225,12.3414882 21.0249134,12.4065108 21.0448007,12.4744732 C21.0729886,12.5713153 21.0793871,12.6659093 21.0202443,12.7603303 C20.9763195,12.8300221 20.9694022,12.9100897 20.9960337,12.9943078 C21.0205901,13.0707439 21.0451465,13.1515033 21.0109059,13.2320897 C20.9770112,13.3125033 20.9733796,13.3962025 20.979951,13.4802476 C20.9858307,13.5589318 20.9759736,13.6357138 20.9690563,13.7135333 C20.951936,13.9046236 20.9182142,14.0943303 20.9149285,14.286804 C20.9178683,14.2933755 20.9232292,14.2964882 20.9270337,14.3023679 C20.9189059,14.3148191 20.9066277,14.3265785 20.9040337,14.3400672 C20.867545,14.5356536 20.7802142,14.7175785 20.7504698,14.9148942 C20.7463195,14.9422176 20.7357706,14.9643529 20.7222819,14.9883905 C20.6636578,15.0959544 20.6365074,15.2164882 20.6288984,15.3352927 C20.6242292,15.406195 20.6140262,15.4689694 20.5809961,15.5298416 C20.5368984,15.6111198 20.5011014,15.6953379 20.474124,15.7842251 C20.4423044,15.8886762 20.4376352,16.0073078 20.3741691,16.0955033 C20.2806127,16.2253755 20.2354774,16.3780747 20.1543721,16.5126161 C20.1374247,16.5404582 20.1322367,16.5705484 20.1457255,16.6063454 C20.1818683,16.7031875 20.1552367,16.79121 20.0966127,16.8724882 C20.0717104,16.9069018 20.0424849,16.9366461 20.0056503,16.9579168 C19.9670864,16.980398 19.9388984,17.0101424 19.9309435,17.0549318 C19.9222969,17.1036988 19.9008533,17.1436461 19.8593495,17.1725258 C19.8424022,17.1844582 19.8282217,17.2024431 19.8285676,17.2256161 C19.8304698,17.3388867 19.7417555,17.4014882 19.6841691,17.481383 C19.6545977,17.5550521 19.617936,17.6226687 19.5475525,17.6676311 C19.5378683,17.6742025 19.5418458,17.7018717 19.5378683,17.718992 C19.5321616,17.7423379 19.5293946,17.7812476 19.5164247,17.785398 C19.4275375,17.813586 19.4175074,17.9024732 19.3689134,17.9604055 C19.2905751,18.0546536 19.2373119,18.1641198 19.1378758,18.2492025 C19.0142292,18.3559018 18.9187706,18.4977063 18.7991014,18.6156461 C18.65453,18.7584882 18.5104774,18.8997739 18.3474022,19.0206536 C18.3176578,19.0431348 18.2861841,19.0640597 18.2438157,19.0701123 C18.1175751,19.0884431 17.9916804,19.1097138 17.867342,19.1380747 C17.713951,19.1723153 17.5666127,19.2333604 17.4088984,19.2504807 C17.404748,19.2527288 17.4007706,19.254804 17.3969661,19.2570521 C17.3995601,19.2520371 17.4014623,19.2465033 17.4042292,19.2416612 C17.356327,19.2169318 17.3042743,19.2304206 17.2542969,19.2273078 C17.1923871,19.224195 17.1425826,19.2665634 17.0804999,19.2677739 C16.9615225,19.2695033 16.8968458,19.3295108 16.8717706,19.4564431 C16.8039811,19.4014506 16.7517555,19.403007 16.7296202,19.4969093 C16.7259886,19.5105709 16.7104247,19.5204281 16.6960713,19.5254431 C16.5760563,19.5697138 16.5376653,19.6826386 16.4850939,19.7817288 C16.461748,19.8254807 16.4501616,19.8794356 16.5020413,19.9197288 C16.5032518,19.9202476 16.5041164,19.9197288 16.505327,19.9202476 C16.4774849,19.9795634 16.4788683,20.0390521 16.5056728,20.0985409 C16.5060187,20.1104732 16.5061916,20.1222326 16.5067104,20.1343379 C16.5080939,20.2067965 16.5350713,20.2773529 16.5236578,20.3510221 C16.4991014,20.4101649 16.4947781,20.4845258 16.4444548,20.5248191 C16.3450187,20.6038491 16.2457555,20.6827063 16.12453,20.731992 C16.0361616,20.7681348 15.9569586,20.8260672 15.8734322,20.8743153 C15.7321465,20.9509243 15.5773721,21.0085108 15.4767255,21.1449544 C15.4068608,21.1575785 15.362936,21.2094582 15.3133044,21.2528642 C15.2475901,21.2516536 15.1810112,21.2490597 15.1336277,21.3073379 C15.0743119,21.3512627 14.9968383,21.3287815 14.9345826,21.3616386 C14.8750939,21.3714958 14.8114548,21.3433078 14.7550789,21.3804882 C14.7592292,21.4104055 14.7441841,21.432195 14.7287931,21.4541574 C14.72153,21.4529469 14.7140939,21.4524281 14.7063119,21.4538115 C14.6504548,21.4927213 14.5925225,21.5186612 14.5202367,21.5177965 C14.4778683,21.5177965 14.4214924,21.5243679 14.3948608,21.5594732 C14.3396954,21.631586 14.2672367,21.6281273 14.1914924,21.6272627 C14.044327,21.6250145 13.8893796,21.5814356 13.7669435,21.708195 C13.7662518,21.7094055 13.7627931,21.710789 13.7582969,21.710789 C13.645718,21.7047364 13.5410939,21.7509093 13.4295525,21.754195 C13.2296428,21.7604206 13.0359586,21.8321875 12.8331089,21.8133379 C12.81253,21.8116085 12.7938533,21.8297664 12.7737931,21.8328792 C12.6491089,21.8519018 12.5213119,21.8351273 12.3974924,21.8667739 C12.3846954,21.8697138 12.3689586,21.8584732 12.3546052,21.8546687 C12.3041089,21.8408341 12.2508458,21.8342627 12.2031164,21.8531123 C12.135154,21.8785333 12.066154,21.8652176 11.9980187,21.8729995 C11.9527104,21.8781875 11.9127631,21.846195 11.8655525,21.8531123 C11.6710037,21.8809544 11.4740337,21.7993303 11.2794849,21.8672927 C11.2516428,21.876977 11.2227631,21.8515559 11.1938834,21.8439469 C11.0966954,21.818007 11.0010638,21.7711424 10.8962668,21.8173153 C10.8711916,21.8287288 10.8431766,21.8209469 10.816545,21.8142025 C10.5875826,21.7528115 10.3522217,21.7253153 10.1208383,21.6765484 C10.0386954,21.6590822 9.95171043,21.6964356 9.87354502,21.6483604 C9.82633449,21.6196536 9.77324427,21.6082401 9.71825179,21.6075484 C9.50450743,21.6035709 9.30390592,21.554804 9.11921419,21.4443003 C9.07010141,21.4154206 9.01580066,21.3962251 8.95890592,21.3848115 C8.7560563,21.3450371 8.57499615,21.2319394 8.36747735,21.2070371 C8.3410187,21.2044431 8.31698111,21.1888792 8.29398111,21.174007 C8.17137209,21.0965333 8.03354502,21.066789 7.89243224,21.0519168 C7.83086833,21.0455183 7.7782969,21.0351424 7.72901118,20.9908717 C7.65949239,20.9291348 7.60277058,20.9424506 7.54950743,21.0209619 C7.53861269,21.0373905 7.52270291,21.0434431 7.50852246,21.0538191 C7.40026682,21.1307739 7.28267284,21.1041424 7.16871043,21.0813153 C7.07428938,21.0624657 6.96966532,21.048804 6.93888337,20.9275785 C6.9326578,20.9012927 6.90568036,20.8857288 6.88562021,20.8677439 C6.81333449,20.803586 6.77822923,20.7197138 6.78030442,20.6275409 C6.78203374,20.5547364 6.75142472,20.5374431 6.68847735,20.5232627 C6.58886833,20.501992 6.49237209,20.4516687 6.42821419,20.3783454 C6.37685329,20.320413 6.32601118,20.2704356 6.25960517,20.2370597 C6.19060517,20.2031649 6.14425931,20.1504206 6.11710893,20.0814206 C6.08771043,20.0051574 6.0361766,19.9681499 5.95334201,19.9643454 C5.87292848,19.9608867 5.8066954,19.9181724 5.77383825,19.8472702 C5.74495855,19.783977 5.70414652,19.7566536 5.6392969,19.7447213 C5.57098863,19.7324431 5.49143976,19.7130747 5.46480818,19.6475333 C5.43610141,19.5773228 5.38854502,19.5289018 5.34237209,19.4747739 C5.30328938,19.4296386 5.26437961,19.3832927 5.23567284,19.3298567 C5.16771043,19.2039619 5.08522171,19.0919018 4.95534953,19.0229018 C4.94151494,19.0156386 4.93027434,19.0073379 4.92439464,18.9919469 C4.85366532,18.8139995 4.70874803,18.7062627 4.55431946,18.6090747 C4.48756758,18.5675709 4.42859765,18.5277965 4.39746983,18.4456536 C4.36461269,18.3598792 4.31394352,18.2810221 4.30374051,18.1855634 C4.30062773,18.1537439 4.28523675,18.1198491 4.2587781,18.0989243 C4.11559013,17.9830597 4.10348487,17.7942176 4.00958261,17.6496461 C3.96064276,17.5749394 3.92363525,17.4907213 3.85204126,17.435383 C3.80050743,17.3952627 3.77975555,17.3508191 3.78407885,17.2889093 C3.78840216,17.228383 3.76592096,17.1818642 3.72095855,17.1379394 C3.63397359,17.0525108 3.58572547,16.9430446 3.54940968,16.8275258 C3.50219915,16.678804 3.44443976,16.5326762 3.37388337,16.3946762 C3.31871795,16.2867664 3.28067284,16.1664055 3.18867284,16.0778642 C3.16446231,16.0548642 3.17259013,16.0152627 3.16982322,15.9827514 C3.1670563,15.9481649 3.17760517,15.9082176 3.13523675,15.8879845 C3.1328157,15.8897138 3.13039464,15.8916161 3.12780066,15.8935183 L3.12780066,15.8933454 C3.08560517,15.8430221 3.11932697,15.7823228 3.10601118,15.728195 C3.07194352,15.5912326 3.0167781,15.4627439 2.99343224,15.3197288 C2.96455254,15.1416085 2.82309389,14.9876988 2.85197359,14.7893454 C2.85231946,14.7865785 2.84920667,14.7839845 2.84868788,14.7808717 C2.81358261,14.6584356 2.81790592,14.5299469 2.79542472,14.4064732 C2.77726682,14.3065183 2.79507885,14.2043153 2.75703374,14.1040145 C2.7407781,14.0613003 2.67748487,14.041586 2.70238712,13.9739694 C2.73714652,13.8824882 2.72763525,13.7868567 2.65586833,13.7131875 C2.61142472,13.6673604 2.60779314,13.6317364 2.64497359,13.581413 C2.68249991,13.5298792 2.7065375,13.4754055 2.666936,13.4088266 C2.65189088,13.3834055 2.65915404,13.3441499 2.65915404,13.3112927 C2.65949991,13.2547439 2.65725179,13.2019995 2.62871795,13.1475258 C2.57718412,13.0491273 2.57355254,12.9387965 2.60658261,12.8341724 C2.63528938,12.7442476 2.62595103,12.6593379 2.58652246,12.5815183 C2.53360517,12.477413 2.55037961,12.3759018 2.56231194,12.2683379 C2.57545479,12.147977 2.62439464,12.037992 2.63304126,11.9129619 C2.64428186,11.7497138 2.59810893,11.5793755 2.67333449,11.4207965 C2.6835375,11.3993529 2.66762773,11.3737589 2.65500367,11.35318 C2.63321419,11.317383 2.61228938,11.2807213 2.58773299,11.2468266 C2.56922923,11.2205409 2.57061269,11.1965033 2.60156758,11.19218 C2.72175555,11.176789 2.71362773,11.089804 2.71224427,11.0045484 C2.71051494,10.9232702 2.71708637,10.8509845 2.78487585,10.7852702 C2.83623675,10.7358115 2.86148487,10.663007 2.84436457,10.5786161 C2.83139464,10.5156687 2.83139464,10.4428642 2.86649991,10.3835484 C2.9252969,10.2837664 2.96109389,10.1710145 2.95849991,10.0631048 C2.95573299,9.96193936 3.00000367,9.90487169 3.04998111,9.83293184 C3.09010141,9.77482658 3.149936,9.72415741 3.149936,9.6385559 C3.149936,9.49727019 3.22550743,9.37085665 3.24176306,9.23130026 C3.24591344,9.19636793 3.27046983,9.15002207 3.29952246,9.13463109 C3.36748487,9.09917996 3.38131946,9.03986417 3.39913149,8.97708974 C3.42783825,8.87436793 3.4478984,8.76697695 3.49303374,8.67169124 C3.55563525,8.53957094 3.66510141,8.43356342 3.72113149,8.29573635 C3.73219915,8.26962357 3.76056006,8.2580371 3.77508637,8.23832282 C3.82108637,8.17624011 3.91360517,8.15963861 3.93418412,8.07697695 C3.96150743,7.96785665 3.99471043,7.86893936 4.07425931,7.77832282 C4.12510141,7.72073635 4.15052246,7.63721004 4.21986833,7.58792432 C4.22626682,7.58325515 4.22972547,7.57270628 4.23180066,7.56405966 C4.24874803,7.49125515 4.30010893,7.44733034 4.35873299,7.40876643 C4.38847735,7.39164613 4.40646231,7.36726267 4.41528186,7.3326762 C4.42064276,7.31088673 4.43482322,7.27681906 4.45004126,7.27387921 C4.58371795,7.24828522 4.61726682,7.12152583 4.69024427,7.03730778 C4.74437209,6.97574387 4.78120667,6.89948071 4.82599615,6.82978898 C4.9140187,6.72447319 5.02089088,6.63437545 5.08020667,6.50675139 C5.07916908,6.49689425 5.08245479,6.48599951 5.08660517,6.47493184 C5.08643224,6.48548071 5.08210893,6.49637545 5.08020667,6.50675139 C5.14747735,6.48686417 5.22495103,6.48686417 5.26559013,6.41509725 C5.28703374,6.37739801 5.32922923,6.36062357 5.35274803,6.33347319 C5.42174803,6.25357846 5.48158261,6.16624763 5.56355254,6.09776643 C5.56856758,6.09378898 5.56580066,6.08064613 5.56649239,6.07165365 C5.6500187,6.0050747 5.73319915,5.93832282 5.81655254,5.8719168 C5.94262021,5.73945064 6.08027434,5.62081906 6.23349239,5.52086417 C6.28468036,5.48748823 6.32825931,5.44339049 6.35800367,5.39393184 C6.43945479,5.25835289 6.57987585,5.18848823 6.69124427,5.08749575 C6.82163525,4.96921004 7.00373299,4.91145064 7.09486833,4.74284162 C7.10628186,4.7219168 7.14778562,4.70427771 7.17337961,4.70652583 C7.2888984,4.7175935 7.34873299,4.63078147 7.42620667,4.57388673 C7.4327781,4.56869876 7.43900367,4.56299199 7.44540216,4.55780402 C7.47895103,4.54639049 7.51249991,4.53584162 7.5488157,4.53687921 C7.58322923,4.53774387 7.622139,4.54327771 7.63856758,4.4988341 L7.63822171,4.4988341 L7.63839464,4.4988341 C7.6515375,4.48690177 7.66450743,4.47514237 7.67747735,4.46338297 C7.78383073,4.39611229 7.90661269,4.35218748 7.98495103,4.24496944 C8.00864276,4.24808222 8.02161269,4.22923259 8.03977058,4.22041304 C8.12243224,4.17925515 8.174139,4.07324763 8.29000367,4.10005214 C8.29882322,4.1019544 8.31040968,4.08933034 8.32113149,4.0843153 C8.42990592,4.03087921 8.55165028,4.0030371 8.64710893,3.9233153 C8.70711645,3.87351079 8.78234201,3.87541304 8.85186081,3.85829274 C8.86206382,3.85846568 8.87330442,3.85587169 8.88592848,3.84912733 L8.88627434,3.84878147 C8.93642472,3.81575139 9.00144728,3.85466116 9.05021419,3.81436793 C9.09431194,3.76836793 9.14895855,3.75193936 9.21138712,3.75799199 C9.24009389,3.75142056 9.267936,3.73568372 9.29110893,3.722195 C9.37394352,3.67394688 9.47199615,3.69366116 9.55604126,3.65302207 C9.62556006,3.61930026 9.70320667,3.60909725 9.77860517,3.59180402 C9.87198863,3.57053334 10.0034172,3.59854838 10.031951,3.45224763 C10.0348909,3.43841304 10.0530488,3.44066116 10.0622142,3.44861605 C10.0992217,3.48181906 10.1327706,3.45985665 10.1576728,3.43651079 C10.216124,3.38048071 10.2766503,3.3777138 10.3421916,3.41766116 C10.4189736,3.46487169 10.4824398,3.45622507 10.5514398,3.39345064 C10.596748,3.35194688 10.6640187,3.34053334 10.7288683,3.34416492 C10.7772894,3.33863109 10.8310713,3.3820371 10.8737856,3.32773635 C10.9948383,3.32842808 11.1153721,3.29557094 11.2369435,3.3258341 C11.2824247,3.3370747 11.3254849,3.32254838 11.3607631,3.29038297 C11.3882593,3.31113485 11.4199059,3.30784913 11.4515525,3.30836793 C11.4646954,3.31321004 11.4797405,3.31787921 11.4906352,3.31736041 C11.5949134,3.3424356 11.7036879,3.34105214 11.8000112,3.31286417 C11.8804247,3.28951831 11.9603195,3.30006718 12.0388307,3.28381154 C12.0860413,3.27360853 12.1406879,3.24663109 12.2062292,3.26340553 C12.298748,3.28727019 12.3992217,3.28830778 12.4958909,3.30663861 C12.5477706,3.31632282 12.6084698,3.32289425 12.6612142,3.2915935 C12.7039285,3.29366868 12.7450864,3.28484913 12.7850337,3.27136041 C12.8706352,3.26928522 12.958139,3.26980402 13.0382067,3.29660853 C13.1025375,3.31822507 13.1644473,3.32877395 13.2305074,3.32669876 C13.2638834,3.32566116 13.2932819,3.33448071 13.3251014,3.34624011 C13.402921,3.37477395 13.4841992,3.39690928 13.5691089,3.37148823 C13.6142443,3.35782658 13.6524623,3.3713153 13.696733,3.38930026 C13.7857931,3.42561605 13.8809059,3.45432282 13.9799961,3.41887169 C14.0218458,3.41558598 14.0348157,3.46106718 14.0687104,3.47144312 C14.0944774,3.48475891 14.115748,3.5029168 14.1479134,3.50793184 C14.2535751,3.52436041 14.3594097,3.53093184 14.465936,3.52487921 C14.4823646,3.53145064 14.4989661,3.538195 14.5159134,3.54476643 C14.5274999,3.58644312 14.5593195,3.61099951 14.5914849,3.63538297 C14.6257255,3.66374387 14.6604849,3.62310477 14.6948984,3.63572883 C14.6931691,3.63866868 14.6902292,3.64039801 14.6888458,3.64385665 C14.6812367,3.70593936 14.7287931,3.71199199 14.7697781,3.71666116 C14.815951,3.72150327 14.8555525,3.73049575 14.8897931,3.76663861 L14.8897931,3.76663861 Z M17.5711089,4.46493936 C17.5711089,4.46493936 17.570936,4.46493936 17.570936,4.46511229 L17.570936,4.46493936 L17.5711089,4.46493936 Z M17.8420939,4.62645816 L17.8420939,4.62645816 L17.8412292,4.62645816 C17.8410563,4.62611229 17.8407104,4.62576643 17.8407104,4.62524763 C17.8410563,4.62576643 17.841748,4.62593936 17.8420939,4.62645816 Z M21.1099961,14.4298191 C21.1087856,14.4277439 21.1074022,14.424804 21.1061916,14.422383 C21.1084398,14.4242852 21.1110337,14.4254958 21.1132819,14.4272251 C21.1118984,14.4280897 21.1112067,14.4289544 21.1099961,14.4298191 L21.1099961,14.4298191 Z M19.9176277,7.05892432 C19.9188383,7.06048071 19.9203946,7.06117244 19.9216052,7.06238297 C19.9200488,7.06290177 19.9186653,7.06376643 19.9171089,7.06463109 C19.9172819,7.0625559 19.9172819,7.06117244 19.9176277,7.05892432 L19.9176277,7.05892432 Z M21.1670638,8.36715741 C21.166545,8.36663861 21.1658533,8.36629274 21.1651616,8.36594688 C21.1656804,8.36560101 21.1661992,8.36525515 21.1668909,8.36490928 C21.1670638,8.36577395 21.1668909,8.36629274 21.1670638,8.36715741 L21.1670638,8.36715741 Z M21.3268533,8.90514989 C21.3256428,8.90480402 21.3244322,8.90445816 21.3232217,8.90393936 C21.3233946,8.90186417 21.3237405,8.89961605 21.3240864,8.8977138 C21.325124,8.89996192 21.3254698,8.90290177 21.3268533,8.90514989 L21.3268533,8.90514989 Z M21.2353721,8.7425935 C21.235718,8.74224763 21.2362367,8.7420747 21.2365826,8.74172883 C21.2364097,8.74224763 21.2362367,8.7420747 21.2362367,8.7425935 C21.2364097,8.7425935 21.2365826,8.74276643 21.2367555,8.74276643 C21.2364097,8.74293936 21.2362367,8.74311229 21.2360638,8.74328522 L21.2360638,8.74293936 C21.2358909,8.74276643 21.235545,8.7425935 21.2353721,8.7425935 L21.2353721,8.7425935 Z M21.3081766,9.06787921 C21.3074849,9.06787921 21.3069661,9.06770628 21.3062743,9.06770628 C21.3067931,9.06736041 21.3073119,9.06666868 21.3078307,9.06614989 C21.3078307,9.06666868 21.3080037,9.06701455 21.3081766,9.06753334 L21.3095601,9.06753334 C21.3092142,9.06805214 21.3092142,9.06874387 21.3088683,9.06926267 C21.3086954,9.06874387 21.3081766,9.06839801 21.3081766,9.06787921 L21.3081766,9.06787921 Z M20.9853119,8.23693936 L20.9828909,8.23745816 C20.9835826,8.23642056 20.9846202,8.23590177 20.985139,8.23486417 C20.985139,8.2355559 20.985139,8.23642056 20.9853119,8.23693936 L20.9853119,8.23693936 Z M21.3270262,9.50090177 C21.3265074,9.5015935 21.3258157,9.50245816 21.325124,9.50332282 C21.325124,9.50297695 21.3254698,9.50263109 21.3254698,9.50228522 C21.3256428,9.50211229 21.3265074,9.50124763 21.3263345,9.50124763 L21.3266804,9.50124763 C21.3266804,9.5010747 21.3268533,9.5010747 21.3268533,9.50090177 L21.3266804,9.50090177 C21.3265074,9.50090177 21.3270262,9.50038297 21.3268533,9.50038297 L21.3268533,9.50090177 L21.3270262,9.50090177 Z M21.0193796,15.2560897 C21.0204172,15.2569544 21.0218007,15.257992 21.0230112,15.2588567 L21.0193796,15.260413 C21.0198984,15.2617965 21.0204172,15.2633529 21.0207631,15.2649093 C21.0197255,15.2642176 21.0186879,15.2636988 21.0174774,15.26318 C21.018342,15.2623153 21.018342,15.2614506 21.0193796,15.260413 L21.0193796,15.2560897 Z M20.1906879,17.2531123 C20.1936277,17.2536311 20.1958758,17.2541499 20.1986428,17.2546687 C20.1977781,17.2557063 20.1970864,17.2570897 20.1962217,17.2579544 C20.1943195,17.256398 20.1932819,17.2548416 20.1906879,17.2531123 L20.1906879,17.2531123 Z M3.81676306,6.76528522 C3.81745479,6.76597695 3.81797359,6.76614989 3.81866532,6.76666868 C3.81797359,6.76666868 3.81762773,6.76718748 3.81710893,6.76718748 L3.81710893,6.76666868 C3.81728186,6.76614989 3.81676306,6.76597695 3.81676306,6.76528522 L3.81676306,6.76528522 Z M2.7648157,6.87025515 C2.76066532,6.86524011 2.75547735,6.85918748 2.74821419,6.85313485 C2.75945479,6.85572883 2.76446983,6.86178147 2.7648157,6.87025515 L2.7648157,6.87025515 Z M5.71210141,3.85362357 C5.71227434,3.85120252 5.71158261,3.84912733 5.71175555,3.84705214 C5.71262021,3.8489544 5.71331194,3.85120252 5.71434953,3.85345064 C5.71348487,3.85345064 5.71279314,3.85362357 5.71210141,3.85362357 L5.71210141,3.85362357 Z M1.92125179,15.1459318 C1.92142472,15.1469694 1.92194352,15.1483529 1.92228938,15.1497364 C1.92021419,15.1488717 1.91883073,15.1474882 1.91675555,15.1469694 C1.91848487,15.1464506 1.91952246,15.1466236 1.92125179,15.1459318 L1.92125179,15.1459318 Z M2.56922923,15.8786461 C2.56819164,15.8770897 2.5685375,15.8746687 2.56749991,15.8734582 L2.57216908,15.8734582 C2.57078562,15.8750145 2.57043976,15.8767439 2.56922923,15.8786461 L2.56922923,15.8786461 Z M2.32159013,8.61151079 C2.32556758,8.60061605 2.32816156,8.5869544 2.33075555,8.57277395 C2.3502969,8.58332282 2.34407134,8.59663861 2.32159013,8.61151079 L2.32159013,8.61151079 Z M1.88545479,10.5585559 C1.88476306,10.5568266 1.88562773,10.5552702 1.8844172,10.5535409 C1.88666532,10.5528491 1.88856758,10.5523303 1.8908157,10.5516386 C1.88839464,10.5538867 1.88752998,10.5564807 1.88545479,10.5585559 L1.88545479,10.5585559 Z M1.90084577,11.7218717 L1.90084577,11.7220446 C1.90084577,11.7218717 1.90084577,11.7218717 1.90067284,11.7216988 L1.90084577,11.7216988 L1.90084577,11.7218717 Z M2.12842472,10.9016536 C2.12358261,10.9044206 2.11839464,10.9045935 2.11286081,10.9025183 C2.11770291,10.9019995 2.12410141,10.9025183 2.12842472,10.9016536 L2.12842472,10.9016536 Z M1.94148487,13.5987063 C1.94131194,13.5983604 1.94148487,13.5978416 1.94131194,13.5974958 C1.94183073,13.5978416 1.9421766,13.5980145 1.94252246,13.5983604 C1.9421766,13.5985333 1.94183073,13.5985333 1.94148487,13.5987063 L1.94148487,13.5987063 Z M2.13343976,10.8994055 C2.13292096,10.8999243 2.13222923,10.8999243 2.13171043,10.9002702 C2.13240216,10.9000973 2.13274803,10.8995785 2.13343976,10.8994055 L2.13343976,10.8994055 Z M2.13119164,10.5357288 C2.1315375,10.5326161 2.1310187,10.5310597 2.1310187,10.5286386 C2.13292096,10.5296762 2.13430442,10.5295033 2.13637961,10.5310597 C2.13378562,10.5324431 2.13343976,10.5343454 2.13119164,10.5357288 L2.13119164,10.5357288 Z M1.43773299,10.9528416 C1.4308157,10.9469619 1.42528186,10.9402176 1.41784577,10.9350296 C1.42545479,10.9393529 1.43133449,10.9464431 1.43773299,10.9528416 L1.43773299,10.9528416 Z M2.57683825,7.77814989 C2.58012397,7.77538297 2.58392848,7.77313485 2.58756006,7.77036793 C2.58462021,7.77434537 2.58098863,7.77693936 2.57683825,7.77814989 L2.57683825,7.77814989 Z M3.18262021,6.19702959 L3.18262021,6.19720252 L3.18244728,6.19720252 C3.18244728,6.19720252 3.18262021,6.19720252 3.18262021,6.19702959 L3.18262021,6.19702959 Z M3.72199615,5.03613485 C3.71992096,5.0278341 3.7238984,5.02264613 3.73116156,5.01884162 C3.72718412,5.02368372 3.72528186,5.03025515 3.72199615,5.03613485 L3.72199615,5.03613485 Z M3.21478562,6.59390928 C3.21599615,6.59373635 3.21703374,6.59390928 3.21824427,6.59390928 C3.2178984,6.59546568 3.21668788,6.59650327 3.21599615,6.59805966 C3.21565028,6.59650327 3.21495855,6.59529274 3.21478562,6.59390928 L3.21478562,6.59390928 Z M3.4484172,5.80274387 C3.448936,5.80533786 3.44997359,5.80672131 3.45031946,5.80914237 C3.44807134,5.80741304 3.44634201,5.80775891 3.44392096,5.80602959 C3.44565028,5.80516492 3.44703374,5.8039544 3.4484172,5.80274387 L3.4484172,5.80274387 Z M3.69709389,6.42253334 C3.69847735,6.42564613 3.69882322,6.42841304 3.69916908,6.43135289 C3.69882322,6.42875891 3.69761269,6.42530026 3.69709389,6.42253334 L3.69709389,6.42253334 Z M5.24846983,5.48437545 C5.24674051,5.48593184 5.24535705,5.4867965 5.24397359,5.48817996 C5.24380066,5.4867965 5.24414652,5.48489425 5.24397359,5.48368372 C5.24552998,5.48385665 5.24656758,5.48437545 5.24846983,5.48437545 L5.24846983,5.48437545 Z M8.43665028,2.87465365 C8.43647735,2.87482658 8.43613149,2.87499951 8.43595855,2.87517244 L8.43595855,2.87534537 C8.43578562,2.87534537 8.43578562,2.87551831 8.43561269,2.87551831 C8.43526682,2.87534537 8.43474803,2.87551831 8.43422923,2.87517244 C8.43526682,2.87413485 8.43647735,2.87361605 8.43734201,2.87240553 C8.43734201,2.87327019 8.43682322,2.87378898 8.43665028,2.87465365 L8.43665028,2.87465365 Z M9.0438157,2.8085935 C9.04485329,2.80824763 9.04571795,2.80824763 9.04658261,2.80790177 C9.04675555,2.8085935 9.04710141,2.80876643 9.04727434,2.80928522 C9.04623675,2.80911229 9.04502622,2.80893936 9.0438157,2.8085935 L9.0438157,2.8085935 Z M7.34060517,4.26381906 C7.34043224,4.2619168 7.33956758,4.26087921 7.33922171,4.25932282 C7.3412969,4.25984162 7.34285329,4.26018748 7.34527434,4.26070628 L7.34527434,4.26105214 C7.34337209,4.26208974 7.34233449,4.26278147 7.34060517,4.26381906 L7.34060517,4.26381906 Z M11.0717931,2.42485665 C11.0716202,2.42468372 11.0714473,2.42468372 11.0714473,2.42451079 L11.0719661,2.42451079 C11.0719661,2.42468372 11.0717931,2.42468372 11.0717931,2.42485665 L11.0717931,2.42485665 Z M13.742733,2.89488673 C13.7361616,2.88900703 13.7321841,2.88018748 13.729936,2.87050327 C13.7335676,2.87880402 13.7380638,2.88693184 13.742733,2.89488673 L13.742733,2.89488673 Z M13.1592901,22.5647411 C13.1595829,22.5659075 13.1598704,22.5670787 13.1601526,22.5682547 C13.1446195,22.6643658 13.0866744,22.7043987 13.003702,22.6993334 C12.9830302,22.7145875 12.950101,22.7236806 12.897272,22.7228456 C12.856126,22.7223861 12.829047,22.7341031 12.8297504,22.7648888 C12.830102,22.7887821 12.8828533,22.8207165 12.8170901,22.8347309 C12.7523818,22.8480561 12.7080707,22.8129053 12.6908386,22.782579 C12.6567261,22.7228456 12.4344673,22.6998712 12.6008097,22.5992433 C12.6205036,22.5020616 12.7980996,22.4618564 12.8037264,22.3566336 C12.8043273,22.3373977 12.8480539,22.3349316 12.8824899,22.3397793 C12.875919,22.3367226 12.8691534,22.3338863 12.8621616,22.3312702 C12.817545,22.3144958 12.7699886,22.3091348 12.7440488,22.2595033 C12.7350563,22.2429018 12.7068683,22.2252627 12.6907856,22.247398 C12.6169435,22.3483905 12.4765225,22.3468341 12.4004322,22.4479995 C12.4161691,22.4884657 12.4868984,22.436586 12.4967555,22.4957288 C12.5048834,22.5457063 12.482748,22.5901499 12.4723721,22.6363228 C12.4677029,22.658804 12.4542142,22.6866461 12.4230864,22.6748867 C12.3995676,22.666413 12.3694774,22.6536161 12.3905751,22.6166085 C12.3919586,22.6138416 12.3955901,22.6096912 12.3950713,22.6088266 C12.3513195,22.5562551 12.3155225,22.4905409 12.260357,22.4575108 C12.2316503,22.4402176 12.2117631,22.5280672 12.1565977,22.5405183 C12.1064473,22.5524506 12.0825826,22.5917063 12.1242593,22.6432401 C12.1318683,22.6524055 12.1348082,22.6669318 12.1206277,22.674195 C12.1000488,22.6842251 12.0784322,22.681804 12.0621766,22.6657213 C12.0199811,22.6233529 11.9795149,22.579601 11.9380112,22.5356762 C11.9167405,22.528413 11.8887255,22.502992 11.8748909,22.5318717 C11.851545,22.5811574 11.9117255,22.5913604 11.9321315,22.6271574 C11.8769661,22.6638191 11.8152292,22.6669318 11.7538383,22.6607063 C11.6993646,22.6556912 11.6433345,22.643586 11.6946954,22.5666311 C11.7087029,22.5457063 11.710951,22.518383 11.6858758,22.502992 C11.6609736,22.4869093 11.6364172,22.462007 11.6047706,22.4720371 C11.5762367,22.4808567 11.5634398,22.5021273 11.5739886,22.5356762 C11.5824623,22.5623078 11.5611916,22.5802927 11.542342,22.5955108 C11.5264322,22.6084807 11.5101766,22.6186837 11.5048157,22.6427213 C11.4970337,22.6771348 11.5433796,22.7305709 11.4992819,22.7397364 C11.401921,22.7606612 11.3266954,22.8514506 11.2139435,22.8220521 C11.1146804,22.7964582 11.0114398,22.8118491 10.9101014,22.8066612 C10.8511315,22.8037213 10.7971766,22.8128867 10.7511766,22.7521875 C10.706733,22.694601 10.6194022,22.6882025 10.5562819,22.6859544 C10.4564999,22.6824958 10.3549886,22.6760973 10.2693871,22.6375333 C10.1630337,22.5901499 10.0329886,22.6347664 9.94168036,22.5429394 C9.93182322,22.5329093 9.90415404,22.5315258 9.89014652,22.5379243 C9.72343976,22.6150521 9.59737209,22.5353303 9.47943224,22.4312251 C9.43118412,22.3888567 9.38345479,22.3892025 9.33071043,22.4141048 C9.2096578,22.4708266 9.1010563,22.4101273 8.99107134,22.3758867 C8.96876306,22.3686236 8.94835705,22.3476988 8.92604878,22.3641273 C8.86863525,22.4063228 8.82280818,22.3847063 8.78510893,22.3392251 C8.71299615,22.2531048 8.5940187,22.2458416 8.51343224,22.173383 C8.4736578,22.1379318 8.4452969,22.1856612 8.4217781,22.2038191 C8.3072969,22.2949544 8.28083825,22.2989318 8.16220667,22.2171348 C8.15719164,22.2147138 8.15390592,22.2079694 8.14837209,22.2062401 C8.09337961,22.1853153 8.04236457,22.1128567 7.99048487,22.2249168 C7.95382322,22.3041198 7.87652246,22.2432476 7.81392096,22.2356386 C7.65637961,22.2171348 7.5825375,22.0569995 7.43537209,22.0212025 C7.39283073,22.0109995 7.4102969,21.9594657 7.40735705,21.9252251 C7.4044172,21.8942702 7.41790592,21.8569168 7.36706382,21.848789 C7.33178562,21.8427364 7.29823675,21.8249243 7.27644728,21.8733454 C7.26174803,21.9056837 7.23961269,21.899977 7.21107885,21.8809544 C7.14692096,21.8375484 7.05872547,21.8550145 7.00961269,21.915195 C6.96810893,21.966383 6.86521419,21.953413 6.8416954,21.8923679 C6.82768788,21.8557063 6.8128157,21.8218115 6.7834172,21.7932777 C6.70386833,21.7170145 6.69608637,21.6047815 6.65008637,21.5110521 C6.63625179,21.48321 6.6390187,21.4465484 6.63019915,21.4154206 C6.60131946,21.3092401 6.56880818,21.2959243 6.47144728,21.3417514 C6.43530442,21.3588717 6.38774803,21.4046988 6.35886833,21.3687288 C6.33050743,21.3337965 6.3057781,21.2741348 6.3458984,21.2208717 C6.36146231,21.1997739 6.36025179,21.179195 6.34987585,21.1537739 C6.30301118,21.0377364 6.25891344,20.9206612 6.2137781,20.8039318 L6.21395103,20.8037589 C6.19008637,20.7836988 6.19890592,20.7408115 6.16137961,20.7297439 C6.13543976,20.7044958 6.10552246,20.6712927 6.0768157,20.7224807 C6.04015404,20.7876762 5.99709389,20.7664055 5.95956758,20.7323379 C5.92463525,20.70121 5.90128938,20.6960221 5.86047735,20.7250747 C5.79320667,20.7731499 5.71452246,20.74721 5.67578562,20.6725033 C5.67007885,20.6621273 5.67059765,20.6436236 5.66298863,20.6396461 C5.57479314,20.5972777 5.58309389,20.5161724 5.57652246,20.4386988 C5.57375555,20.4063604 5.54418412,20.3914882 5.51098111,20.3871649 C5.43039464,20.3769619 5.357936,20.3605333 5.32334953,20.2680145 C5.3108984,20.2339469 5.299139,20.2152702 5.32179314,20.1822401 C5.34358261,20.1504206 5.32819164,20.1187739 5.299139,20.095601 C5.26662773,20.0703529 5.2488157,20.0985409 5.23186833,20.1173905 C5.20489088,20.1473078 5.17272547,20.154398 5.13468036,20.1531875 C5.05807134,20.1507664 5.03887585,20.1882927 5.06689088,20.2560822 C5.07934201,20.2865183 5.09404126,20.3162627 5.10251494,20.3484281 C5.1166954,20.4013454 5.06360517,20.4117213 5.03662773,20.4295333 C5.00359765,20.450804 4.99979314,20.4113755 4.98647735,20.3883755 C4.95327434,20.330789 4.94013149,20.2640371 4.8974172,20.2104281 C4.85798863,20.1604506 4.89828186,20.1352025 4.94030442,20.1184281 C5.04579314,20.0760597 5.05720667,20.0304055 4.98630442,19.9415183 C4.95292848,19.8991499 4.93459765,19.852977 4.96952998,19.8009243 C4.99616156,19.7602852 4.97575555,19.722586 4.94964276,19.6963003 C4.92249239,19.6684582 4.88392848,19.6520296 4.84277058,19.6772777 C4.82755254,19.6862702 4.81146983,19.6935333 4.79556006,19.702007 C4.73036457,19.7360747 4.67710141,19.7561348 4.69733449,19.6421724 C4.71013149,19.5726536 4.63404126,19.5624506 4.60014652,19.5250973 C4.56919164,19.4912025 4.54152246,19.5304582 4.51696607,19.5498266 C4.49777058,19.5650446 4.47304126,19.5875258 4.45436457,19.5659093 C4.37291344,19.4728717 4.24719164,19.4152852 4.21831194,19.2786687 C4.21468036,19.2627589 4.21156758,19.2473679 4.22609389,19.2387213 C4.23992848,19.2299018 4.25445479,19.2359544 4.26777058,19.2447739 C4.29094352,19.2605108 4.30650743,19.2969995 4.34316908,19.2776311 C4.35907885,19.2691574 4.3576954,19.2485785 4.34731946,19.2380296 C4.32172547,19.2115709 4.30374051,19.1567514 4.26016156,19.1752551 C4.18234201,19.208977 4.17663525,19.1498341 4.1560563,19.1074657 C4.14291344,19.0804882 4.13513149,19.04521 4.09570291,19.0545484 C4.05212397,19.0637138 4.0752969,19.0941499 4.08100367,19.1188792 C4.08722923,19.1467213 4.07512397,19.1716236 4.04797359,19.1735258 C3.9896954,19.1768115 3.94404126,19.1944506 3.91827434,19.2520371 C3.91101118,19.2682927 3.89268036,19.2615484 3.8800563,19.2513454 C3.86604878,19.2397589 3.85152246,19.2195258 3.83734201,19.2200446 C3.74413149,19.2207364 3.7410187,19.1752551 3.77733449,19.1022777 C3.73064276,19.1377288 3.66112397,19.1308115 3.64486833,19.2029243 C3.63898863,19.2295559 3.60803374,19.2392401 3.58537961,19.2286912 C3.5296954,19.2025785 3.49199615,19.2589544 3.44098111,19.2542852 C3.41936457,19.2529018 3.41677058,19.277977 3.42368788,19.2966536 C3.43250743,19.3194807 3.44236457,19.3438642 3.42887585,19.3659995 C3.4088157,19.3995484 3.4088157,19.464398 3.35762773,19.4559243 C3.30436457,19.4477965 3.34050743,19.3983379 3.34362021,19.3659995 C3.34725179,19.331413 3.32961269,19.3049544 3.30021419,19.2944055 C3.26078562,19.2802251 3.21443976,19.2722702 3.18071795,19.3032251 C3.15771795,19.3241499 3.13506382,19.3516461 3.1317781,19.3865785 C3.13143224,19.3915935 3.13644728,19.4014506 3.13904126,19.4019694 C3.29364276,19.4111348 3.15287585,19.5216386 3.19610893,19.5754206 C3.21634201,19.6001499 3.17328186,19.6323153 3.13437209,19.6281649 C3.08889088,19.622977 3.03580066,19.6127739 3.04150743,19.5541499 C3.0456578,19.507804 3.03545479,19.4929318 2.99412397,19.4766762 C2.95002622,19.4595559 2.93083073,19.418398 2.96230442,19.3737815 C2.9820187,19.3459394 2.97890592,19.3279544 2.95728938,19.3039168 C2.93238712,19.275383 2.91007885,19.2786687 2.8787781,19.2919845 C2.78297359,19.3343529 2.77536457,19.3283003 2.74458261,19.226789 C2.72971043,19.1776762 2.7124172,19.129601 2.69166532,19.0834281 C2.68128938,19.0600822 2.66088337,19.0258416 2.63148487,19.042789 C2.53152998,19.0979544 2.53931194,19.0125258 2.53498863,18.9654882 C2.53014652,18.9103228 2.50956758,18.8695108 2.46443224,18.8491048 C2.31259765,18.7799318 2.26486833,18.6220446 2.16456758,18.5092927 C2.12686833,18.4669243 2.13343976,18.4065709 2.11147735,18.3586687 C2.05302622,18.2312176 1.95428186,18.1336837 1.85657509,18.0366687 C1.8325375,18.0131499 1.80383073,17.9970672 1.8154172,17.9555634 C1.82527434,17.9211499 1.79622171,17.8991875 1.77892848,17.877398 C1.70975555,17.7888567 1.66496607,17.6911499 1.64490592,17.5796085 C1.63574051,17.5296311 1.59544728,17.4917589 1.55965028,17.4552702 C1.49134201,17.3850597 1.44326682,17.3087965 1.44672547,17.2015785 C1.45035705,17.0948792 1.36164276,17.0219018 1.31806382,16.9321499 C1.29540968,16.8851123 1.263936,16.8430897 1.24871795,16.7901724 C1.23471043,16.7417514 1.2168984,16.6886612 1.18404126,16.6528642 C1.1312969,16.5964882 1.1082969,16.5404582 1.13423675,16.4664431 C1.14582322,16.4332401 1.11746231,16.4176762 1.09895855,16.3996912 C1.05071043,16.3531724 1.01889088,16.3047514 1.04811645,16.2322927 C1.05952998,16.2037589 1.05987585,16.1664055 1.03514652,16.1380446 C0.915650283,16.0028115 0.879161561,15.8333379 0.840770583,15.6649018 C0.833680358,15.6332551 0.825033741,15.597804 0.880026223,15.5965935 C0.928447275,15.5950371 0.938304418,15.559586 0.91098111,15.5298416 C0.873454794,15.4898942 0.869131486,15.4459694 0.871725471,15.3972025 C0.873627726,15.3626161 0.856507426,15.3408266 0.825898403,15.3276837 C0.758281862,15.2994958 0.733379606,15.2484807 0.717642764,15.1767138 C0.691184117,15.0551424 0.631349531,14.94118 0.634635245,14.8121724 C0.63498111,14.8069845 0.632560057,14.7993755 0.628928478,14.795398 C0.541424719,14.6978642 0.614748027,14.5992927 0.615093892,14.5002025 C0.615785621,14.3717138 0.674755546,14.2238567 0.570823215,14.1024582 C0.523266824,14.0472927 0.565808177,13.9706837 0.529319456,13.9134431 C0.483319456,13.8415033 0.513063817,13.7872025 0.563560057,13.7344582 C0.580161561,13.7175108 0.603680358,13.6877664 0.587770583,13.6722025 C0.521018704,13.6068341 0.54298111,13.5191574 0.534680358,13.4451424 C0.525860809,13.3680145 0.473462313,13.2895033 0.517214192,13.2085709 C0.539349531,13.1682777 0.515830734,13.1312702 0.508913441,13.0953003 C0.485221711,12.9666386 0.545575095,12.8391875 0.512372087,12.7105258 C0.506838253,12.6904657 0.516176598,12.6593379 0.53035705,12.6432551 C0.587770583,12.5768491 0.627372087,12.5147664 0.545748027,12.436601 C0.522748027,12.4144657 0.554913441,12.3885258 0.562003666,12.3636236 C0.578086373,12.308804 0.622011185,12.2538115 0.55266532,12.1970897 C0.530529982,12.1791048 0.522575095,12.1206536 0.533296899,12.0902176 C0.577048779,11.9676085 0.54298111,11.8370446 0.579815696,11.7139168 C0.601259305,11.6423228 0.535717952,11.5816236 0.542116448,11.5062251 C0.551973591,11.3926085 0.560101411,11.2803755 0.637920959,11.1901048 C0.667146523,11.156383 0.669740508,11.1382251 0.641725471,11.10018 C0.572206674,11.005413 0.588808177,10.9137589 0.681672839,10.8418191 C0.705018704,10.8238341 0.714011185,10.808789 0.696890884,10.7826762 C0.618379606,10.6642176 0.66022923,10.5416085 0.687379606,10.420383 C0.69135705,10.4013604 0.712973591,10.3854506 0.704672839,10.3627965 C0.665590132,10.2545409 0.74704126,10.1782777 0.781627726,10.0919845 C0.805146523,10.0331875 0.83454502,9.98839801 0.789409681,9.92769876 C0.745657802,9.86924763 0.788199155,9.82687921 0.838695395,9.82981906 C0.953522463,9.83673635 0.919973591,9.75960853 0.901123967,9.71706718 C0.863078854,9.63094688 0.844056298,9.55606718 0.915650283,9.47824763 C0.944702914,9.44694688 0.895071335,9.40423259 0.926199155,9.35978898 C0.964935997,9.30427771 1.00626682,9.27384162 1.07440216,9.28300703 C1.07111645,9.24357846 1.03774051,9.23216492 1.0216578,9.20830026 C0.987244268,9.15711229 0.932943516,9.10644312 1.02857509,9.0587138 C1.05659013,9.04453334 1.06316156,9.01427019 1.05624427,8.98002959 C1.03895103,8.89546568 1.05486081,8.83027019 1.14703374,8.79101455 C1.18992096,8.77251079 1.21983825,8.73533034 1.22589088,8.66702207 C1.23090592,8.61185665 1.23592096,8.54873635 1.25062021,8.49201455 C1.26704878,8.42716492 1.28330442,8.36975139 1.21949239,8.32202207 C1.20790592,8.31372131 1.194936,8.28830026 1.20756006,8.28536041 C1.2746578,8.26910477 1.28572547,8.18627019 1.35143976,8.16932282 C1.37098111,8.16413485 1.39899615,8.15704462 1.40608637,8.14251831 C1.470936,8.00572883 1.63539464,7.97581154 1.711139,7.85458598 C1.75264276,7.78817996 1.77823675,7.71139801 1.81074803,7.63945816 C1.81783825,7.62372131 1.82250743,7.59812733 1.83409389,7.59380402 C1.93128186,7.55800703 1.92056006,7.47828522 1.9196954,7.40011981 C1.9191766,7.3669168 1.92643976,7.3214356 1.97365028,7.34996944 C2.02812397,7.38213485 2.03694352,7.34028522 2.06530442,7.31538297 C2.1545375,7.23721756 2.13309389,7.11097695 2.19828938,7.02347319 C2.13257509,6.89705966 2.23339464,6.8849544 2.31000367,6.83428522 C2.37104878,6.79381906 2.39335705,6.70389425 2.34839464,6.62244312 C2.33628938,6.60048071 2.32816156,6.57765365 2.34908637,6.55638297 C2.37001118,6.53476643 2.39387585,6.54047319 2.41480066,6.55448071 C2.46719915,6.59010477 2.50922171,6.55811229 2.54519164,6.52975139 C2.5866954,6.49724011 2.57303374,6.44622507 2.56127434,6.40402959 C2.53222171,6.29525515 2.57787585,6.22954086 2.69097359,6.23023259 C2.73680066,6.23040553 2.74925179,6.2067138 2.74873299,6.16901455 C2.74838712,6.1077965 2.76533449,6.07822507 2.83554502,6.10157094 C2.89330442,6.12042056 2.92131946,6.10208974 2.89797359,6.03308974 C2.88310141,5.98985665 2.89088337,5.94437545 2.86286833,5.89802959 C2.82672547,5.83802207 2.91492096,5.86690177 2.92910141,5.83560101 C2.9247781,5.75449575 2.95192848,5.66872131 2.87255254,5.6017965 C2.84021419,5.57464613 2.861139,5.53833034 2.90298863,5.53158598 C2.92875555,5.5274356 2.95677058,5.53262357 2.9825375,5.53833034 C3.01539464,5.54576643 3.05447735,5.56184913 3.07419164,5.53054838 C3.09511645,5.49665365 3.05240216,5.47970628 3.03095855,5.4643153 C2.99568036,5.43924011 3.00640216,5.4124356 3.03303374,5.40292432 C3.08145479,5.38545816 3.08197359,5.34827771 3.09286833,5.309195 C3.10583825,5.26440553 3.12555254,5.21857846 3.17864276,5.20266868 C3.18988337,5.19921004 3.20389088,5.19384913 3.20907885,5.18502959 C3.28568788,5.06138297 3.43060517,5.00275891 3.50392848,4.87427019 C3.52658261,4.83501455 3.57016156,4.80648071 3.60682322,4.77621756 C3.6441766,4.74508974 3.64607885,4.70911981 3.60665028,4.68957846 C3.51931946,4.64599951 3.56808637,4.59100703 3.6035375,4.56402959 C3.65766532,4.52287169 3.68049239,4.46770628 3.70349239,4.41236793 C3.72234201,4.36723259 3.7420563,4.36187169 3.78494352,4.37605214 C3.8800563,4.40700703 3.9201766,4.37847319 3.92190592,4.2795559 C3.92277058,4.21505214 3.94300367,4.17475891 4.01425179,4.17510477 C4.03448487,4.17510477 4.07097359,4.17199199 4.06163525,4.14985665 C4.01961269,4.05318748 4.13962773,4.03330026 4.14706382,3.9585935 C4.14983073,3.92884913 4.184936,3.9468341 4.20534201,3.96084162 C4.27399615,4.00874387 4.32639464,4.01808222 4.41147735,3.96136041 C4.49863525,3.90325515 4.621936,3.87835289 4.72707885,3.95911229 C4.74921419,3.97605966 4.76962021,3.97796192 4.79348487,3.96533786 C4.80680066,3.95824763 4.82443976,3.94389425 4.8337781,3.94769876 C4.89343976,3.97173635 4.95742472,4.01687169 4.95171795,3.89357094 C4.95102622,3.88440553 4.99045479,3.88717244 5.00567284,3.91570628 C5.05374803,4.00736041 5.14868788,4.01669876 5.22097359,3.94060853 C5.25815404,3.90135289 5.22944728,3.88405966 5.19883825,3.8660747 C5.16874803,3.84808974 5.10995103,3.82578147 5.12516908,3.80053334 C5.15283825,3.75470628 5.16615404,3.69539049 5.21699615,3.6644356 C5.24950743,3.64437545 5.26801118,3.66824011 5.28530442,3.68812733 C5.31798863,3.72617244 5.35672547,3.71977395 5.37298111,3.68345816 C5.41137209,3.59768372 5.47708637,3.51208222 5.41016156,3.41005214 C5.40480066,3.40175139 5.40756758,3.38808974 5.40652998,3.37684913 C5.44509389,3.35886417 5.45374051,3.39829274 5.47674051,3.40572883 C5.50596607,3.41524011 5.54695103,3.43962357 5.53519164,3.37390928 C5.53104126,3.35039049 5.5301766,3.32946568 5.56113149,3.33050327 C5.58568788,3.33136793 5.5991766,3.35004462 5.59952246,3.37287169 C5.59952246,3.39016492 5.59502622,3.40866868 5.587936,3.42440553 C5.575139,3.45242056 5.56182322,3.47870628 5.58551494,3.50775891 C5.5991766,3.52522507 5.61768036,3.52902959 5.63255254,3.51640553 C5.66125931,3.49184913 5.70086081,3.47299951 5.70345479,3.42890177 C5.71140968,3.30508222 5.71210141,3.30611981 5.84197359,3.32324011 C5.88555254,3.32911981 5.94089088,3.34796944 5.96302622,3.28069876 C5.97876306,3.23435289 5.9950187,3.18230026 6.06159765,3.20841304 C6.10102622,3.22397695 6.09531946,3.26444312 6.04828186,3.32946568 C6.11313149,3.34520252 6.17694352,3.33154086 6.24179314,3.32773635 C6.3464172,3.32133786 6.29955254,3.21152583 6.35056758,3.16863861 C6.38636457,3.20270628 6.31234953,3.24922507 6.36976306,3.26427019 C6.4266578,3.27914237 6.48804878,3.28605966 6.54442472,3.25666116 C6.56275555,3.24732282 6.57745479,3.23089425 6.59388337,3.21775139 L6.59371043,3.21775139 C6.64092096,3.17434537 6.62587585,3.10517244 6.66167284,3.05502207 C6.67723675,3.03323259 6.65025931,3.01282658 6.62795103,3.00072131 C6.60443224,2.98792432 6.58333449,2.98204462 6.5651766,3.00850327 C6.55237961,3.02752583 6.54442472,3.05830778 6.5132969,3.04758598 C6.48804878,3.0385935 6.46176306,3.01766868 6.46037961,2.99086417 C6.45813149,2.95230026 6.49444728,2.96924763 6.51468036,2.96613485 C6.610139,2.95212733 6.69608637,2.92514989 6.737936,2.82536793 C6.75488337,2.7845559 6.78704878,2.7625935 6.82924427,2.75723259 C6.84377058,2.78957094 6.82371043,2.79873635 6.81246983,2.81066868 C6.78860517,2.83539801 6.76180066,2.85839801 6.8010563,2.89160101 C6.8347781,2.91961605 6.87974051,2.9230747 6.89513149,2.88693184 C6.96949239,2.71244312 7.13792848,2.80236793 7.25621419,2.75481154 C7.28578562,2.74287921 7.32711645,2.77815741 7.37156006,2.78127019 C7.47998863,2.78870628 7.55227434,2.71261605 7.64583073,2.68961605 C7.67384577,2.68287169 7.68162773,2.65935289 7.66035705,2.63358598 C7.64928938,2.61957846 7.63372547,2.60747319 7.62715404,2.59156342 C7.60830442,2.54746568 7.55607885,2.50699951 7.5942969,2.45356342 C7.63061269,2.40237545 7.68560517,2.42157094 7.73437209,2.43523259 C7.76031194,2.44232282 7.7846954,2.43938297 7.80216156,2.42364613 C7.83415404,2.39493936 7.85179314,2.34150327 7.91352998,2.3823153 C7.92338712,2.38888673 7.97820667,2.3598341 7.94102622,2.32369124 C7.91162773,2.29515741 7.91543224,2.28132282 7.94621419,2.26333786 C7.98252998,2.24189425 8.00812397,2.2614356 8.0141766,2.29342808 C8.0254172,2.35447319 8.02680066,2.41690177 8.08784577,2.31660101 C8.10219915,2.29239049 8.1291766,2.29481154 8.151139,2.31210477 C8.1800187,2.33458598 8.21270291,2.34686417 8.23985329,2.31694688 C8.26423675,2.28945064 8.27063525,2.25434537 8.25247735,2.21664613 C8.24175555,2.19520252 8.21201118,2.17081906 8.24244728,2.14557094 C8.26631194,2.12602959 8.29363525,2.14712733 8.31871043,2.14730026 C8.41226682,2.14781906 8.50928186,2.20021756 8.59937961,2.12948823 C8.62635705,2.10804462 8.64952998,2.13675139 8.67356758,2.14557094 C8.70434953,2.15663861 8.72856006,2.15058598 8.73859013,2.11876643 C8.74689088,2.09092432 8.72873299,2.07570628 8.70400367,2.06429274 C8.67598863,2.05166868 8.62635705,2.05806718 8.62566532,2.0196762 C8.62428186,1.97125515 8.67737209,1.96987169 8.71195855,1.95569124 C8.75467284,1.93822507 8.82540216,1.96087921 8.84684577,1.9977138 C8.8528984,2.0079168 8.86016156,2.0207138 8.86967284,2.02451831 C8.90097359,2.03662357 8.9170563,2.09697695 8.95734953,2.06723259 C8.99539464,2.03939049 8.96167284,1.99805966 8.9448984,1.97125515 C8.91290592,1.92058598 8.9277781,1.90398447 8.97758261,1.87804462 C9.11004878,1.80869876 9.25600367,1.767195 9.38224427,1.6859168 C9.41994352,1.66170628 9.43118412,1.69439049 9.44346231,1.71496944 C9.46628938,1.75336041 9.48963525,1.76598447 9.53044728,1.73727771 C9.59322171,1.69300703 9.62504126,1.7666762 9.67294352,1.78068372 C9.71583073,1.79348071 9.74557509,1.82478147 9.80091344,1.79157846 C9.86904878,1.7505935 9.92421419,1.80057094 9.9172969,1.88323259 C9.91331946,1.92940553 9.92421419,1.97713485 9.88513149,2.02365365 C9.9740187,2.01587169 10.0435375,2.00757094 10.0658458,1.91366868 C10.0746653,1.87752583 10.1056202,1.86351831 10.1517931,1.88081154 C10.2450037,1.91505214 10.3108909,1.85590928 10.2878909,1.76148823 C10.2808007,1.73139801 10.2891014,1.71600703 10.3086428,1.69975139 C10.333718,1.67899951 10.343748,1.70009725 10.3586202,1.71548823 C10.4009886,1.75958598 10.420357,1.72672883 10.4354022,1.68972131 C10.4502743,1.65357846 10.4611691,1.61605214 10.4760413,1.58025515 C10.4838232,1.56105966 10.502154,1.55690928 10.5215225,1.56036793 C10.5391616,1.56348071 10.5519586,1.57887169 10.5436578,1.59201455 C10.4999059,1.66257094 10.5491916,1.78016492 10.4139586,1.80852583 C10.5310337,1.83930778 10.5782443,1.80645064 10.5846428,1.70614989 C10.5863721,1.68384162 10.599342,1.64977395 10.6117931,1.65669124 C10.6737029,1.69093184 10.7554999,1.60429274 10.8061691,1.69162357 C10.8251916,1.72465365 10.8502668,1.72050327 10.8826052,1.7030371 C10.985154,1.64787169 11.0906428,1.6179544 11.2042593,1.67623259 C11.2462819,1.69750327 11.2850187,1.67346568 11.3249661,1.65824763 C11.3920638,1.63265365 11.4444623,1.65133034 11.45553,1.72811229 C11.4622743,1.77151831 11.4885601,1.77636041 11.5188232,1.77324763 C11.593357,1.76615741 11.6265601,1.81198447 11.6691014,1.86421004 C11.7190789,1.92611981 11.7662894,1.98145816 11.7813345,2.06394688 C11.7920563,2.1229168 11.8537931,2.07553334 11.8897631,2.09438297 C11.9132819,2.10648823 11.9314398,2.07968372 11.938357,2.05408974 C11.9559961,1.98889425 11.9553044,1.92196944 12.0339886,1.88029274 C12.0888082,1.85106718 12.0862142,1.77272883 12.0836202,1.70736041 C12.0801616,1.6110371 12.1825375,1.52560853 12.2800713,1.54013485 C12.3272819,1.54722507 12.3646352,1.57108974 12.3450939,1.62435289 C12.3267631,1.6746762 12.3535676,1.70286417 12.3860789,1.7217138 C12.441936,1.75405214 12.4692593,1.79469124 12.4654548,1.85988673 C12.4642443,1.882195 12.4735826,1.90986417 12.4877631,1.92733034 C12.5204473,1.96848823 12.5074774,1.99217996 12.4716804,2.02382658 C12.4229134,2.06757846 12.4334623,2.11790177 12.4972743,2.13536793 C12.567139,2.15473635 12.6214398,2.23705214 12.710154,2.18845816 C12.7625525,2.15975139 12.7981766,2.10804462 12.8606052,2.09230778 C12.8856804,2.08608222 12.8770337,2.05789425 12.8547255,2.04440553 C12.8293044,2.02866868 12.8004247,2.01760101 12.7775977,1.99857846 C12.7525225,1.97834537 12.7582292,1.9506762 12.7751766,1.92577395 C12.794545,1.89793184 12.8102819,1.91574387 12.8260187,1.93044312 C12.8445225,1.94773635 12.8645826,1.96226267 12.8896578,1.94566116 C12.9206127,1.92490928 12.9218232,1.88911229 12.9088533,1.86438297 C12.8759961,1.80299199 12.8901766,1.75042056 12.9047029,1.68574387 C12.9230337,1.60411981 12.8751315,1.52301455 12.8294774,1.45211229 C12.8076879,1.41856342 12.7931616,1.45332282 12.7746578,1.46611981 C12.7443946,1.48739049 12.7201841,1.52560853 12.6747029,1.5136762 C12.6689961,1.51229274 12.6625977,1.49188673 12.6653646,1.48289425 C12.6788533,1.43827771 12.7034097,1.39487169 12.748545,1.38311229 C12.8113195,1.36668372 12.8778984,1.3590747 12.9328909,1.41354838 C12.9747405,1.45487921 13.0171089,1.49499951 13.0646653,1.53148823 C13.1158533,1.57057094 13.0516954,1.58250327 13.0226428,1.59305214 C12.9356578,1.62452583 12.9200939,1.65876643 12.9638458,1.72984162 C13.0020638,1.79227019 13.0724473,1.79382658 13.1047856,1.72724763 C13.1412743,1.6527138 13.1876202,1.62348823 13.267342,1.65997695 C13.308327,1.67865365 13.3351315,1.65133034 13.3610713,1.62469876 C13.3859736,1.59858598 13.4094924,1.57039801 13.4520337,1.57558598 C13.4707104,1.57800703 13.4881766,1.58042808 13.4987255,1.59772131 C13.5108307,1.6179544 13.4964774,1.63127019 13.484545,1.64458598 C13.4530713,1.6805559 13.428342,1.73381906 13.3885676,1.74886417 C13.285154,1.78811981 13.2688984,1.86697695 13.2637104,1.95949575 C13.262154,1.98405214 13.277718,1.98941304 13.2906879,2.00030778 C13.3256202,2.03039801 13.3614172,2.05996944 13.3394548,2.11427019 C13.3334022,2.1293153 13.3320187,2.14660853 13.3522518,2.14989425 C13.4561841,2.16770628 13.4679435,2.25590177 13.4931916,2.33320252 C13.5205149,2.41724763 13.5625375,2.44024763 13.6306728,2.39753334 C13.7826804,2.3015559 14.0604097,2.42796944 14.10053,2.5893153 C14.1138458,2.64327019 14.1422067,2.66211981 14.1882067,2.67681906 C14.2781315,2.70552583 14.3422894,2.77660101 14.4214924,2.82398447 C14.4299661,2.82882658 14.4368834,2.84369876 14.4368834,2.85390177 C14.4393044,3.00902207 14.550154,3.07300703 14.6691315,3.12730778 C14.7018157,3.14217996 14.7315601,3.15549575 14.7346728,3.19198447 C14.7436653,3.29781906 14.813357,3.36560853 14.8811465,3.4349544 C14.8993044,3.43478147 14.9169435,3.43460853 14.9351014,3.4344356 C14.9791992,3.37269876 15.0276202,3.4167965 15.0679134,3.43564613 C15.125154,3.46193184 15.1747856,3.492195 15.2449961,3.47714989 C15.2911691,3.46711981 15.3335375,3.50568372 15.3708909,3.53663861 C15.4009811,3.561195 15.4326277,3.584195 15.4634097,3.60788673 C15.5071616,3.64126267 15.5507405,3.62829274 15.5872292,3.59958598 C15.6871841,3.5210747 15.6928909,3.52349575 15.7843721,3.60529274 C15.8698007,3.68172883 15.9809961,3.71942808 16.0856202,3.75366868 C16.1674172,3.78030026 16.2236202,3.82163109 16.2691014,3.88475139 C16.2986728,3.92608222 16.3308383,3.95893936 16.3809886,3.96793184 C16.4572518,3.98124763 16.4769661,4.0789544 16.5651616,4.08293184 C16.6118533,4.08500703 16.655951,4.12478147 16.7099059,4.12270628 C16.7431089,4.12184162 16.7629961,4.14760853 16.776139,4.17648823 C16.8828383,4.2565559 16.9814097,4.35564613 17.1351465,4.32054086 C17.1603946,4.3148341 17.2012067,4.31051079 17.2103721,4.33593184 C17.2527405,4.45404462 17.3616879,4.41893936 17.4441766,4.44487921 C17.4642367,4.41893936 17.4863721,4.43277395 17.5088533,4.4400371 C17.5321992,4.44764613 17.5700713,4.45421756 17.5771616,4.43865365 C17.6202217,4.34336793 17.7589134,4.43865365 17.7865826,4.33420252 C17.8043946,4.26814237 17.8514322,4.22266116 17.8778909,4.16438297 C17.8982969,4.11924763 17.9321916,4.10039801 17.9776728,4.10973635 C18.0186578,4.11838297 18.071748,4.11976643 18.0594698,4.1885935 C18.0542819,4.21833786 18.0764172,4.23787921 18.0954398,4.2575935 C18.1096202,4.27211981 18.1310638,4.28578147 18.1244924,4.30947319 C18.0864473,4.44833786 18.1746428,4.55987921 18.2114774,4.68041304 C18.230327,4.74301455 18.324921,4.72762357 18.3830262,4.75269876 C18.4464924,4.68646568 18.5220638,4.68750327 18.5998834,4.7175935 C18.6547029,4.73921004 18.6994924,4.77172131 18.672342,4.84314237 L18.672342,4.84296944 L18.672342,4.84314237 C18.6664623,4.84936793 18.6605826,4.85542056 18.6547029,4.86147319 C18.6524548,4.8668341 18.6483044,4.87202207 18.646921,4.87772883 C18.6410413,4.90833786 18.5903721,4.92874387 18.6151014,4.96246568 C18.6400037,4.99618748 18.6892894,4.99912733 18.7237029,4.98356342 C18.789936,4.95381906 18.8227931,5.00102959 18.8525375,5.03544312 C18.9388307,5.13660853 19.0674924,5.18745064 19.1492894,5.29311229 C19.1807631,5.33392432 19.2222668,5.33599951 19.2710337,5.32199199 C19.3310413,5.30435289 19.3938157,5.29674387 19.4545149,5.28239049 C19.4920413,5.27374387 19.5235149,5.28757846 19.543748,5.31299951 C19.6124022,5.40033034 19.7113195,5.45428522 19.7848157,5.53590928 C19.8131766,5.5675559 19.8418834,5.60058598 19.8320262,5.64641304 C19.8190563,5.70451831 19.8430939,5.7173153 19.8972217,5.72025515 C19.929733,5.72163861 19.9698533,5.72475139 19.9942367,5.75864613 C20.0080713,5.77749575 20.0333195,5.79098447 20.0134322,5.81969124 C19.9976954,5.84286417 19.9797104,5.84424763 19.9520413,5.83629274 C19.8712819,5.81277395 19.8574473,5.82833786 19.8737029,5.91117244 C19.8783721,5.93469124 19.8799285,5.9585559 19.8826954,5.98242056 C19.8844247,6.00144312 19.8899586,6.02133034 19.909154,6.02530778 C19.9350939,6.03032282 19.9305977,6.00472883 19.9376879,5.98951079 C19.9636277,5.93642056 20.1201315,5.87174387 20.1727029,5.89508974 C20.2192217,5.91601455 20.2522518,5.95163861 20.2417029,6.00853334 C20.2276954,6.08324011 20.2603796,6.08012733 20.3094924,6.0505559 C20.3426954,6.03032282 20.3822969,6.022195 20.410139,6.04657846 C20.438154,6.07096192 20.4241465,6.10675891 20.4044322,6.13650327 C20.3812593,6.1709168 20.4046052,6.17489425 20.4324473,6.17956342 C20.4737781,6.18682658 20.5135525,6.19460853 20.5548834,6.17610477 C20.6024398,6.15466116 20.6411766,6.17351079 20.6539736,6.21985665 C20.6686728,6.27156342 20.6318383,6.2864356 20.5858383,6.28868372 C20.5564398,6.29041304 20.5270413,6.30321004 20.4981616,6.30182658 C20.4722217,6.30044312 20.4443796,6.28142056 20.4295074,6.31790928 C20.4182668,6.34557846 20.4224172,6.3725559 20.4497405,6.38915741 C20.4774097,6.40593184 20.5192593,6.43411981 20.5381089,6.40160853 C20.5702743,6.34730778 20.5832443,6.37514989 20.6039961,6.40402959 C20.6567405,6.47804462 20.7138082,6.54012733 20.8177405,6.49308974 C20.8236202,6.49032282 20.8410864,6.50087169 20.8457555,6.50934537 C20.8552668,6.52750327 20.8424698,6.53701455 20.8255225,6.53908974 C20.7867856,6.54358598 20.7589435,6.56260853 20.77053,6.60342056 C20.7843646,6.65253334 20.8192969,6.61604462 20.844718,6.61396944 C20.8912367,6.60999199 20.9232292,6.63645064 20.9336052,6.67414989 C20.9420789,6.70302959 20.9209811,6.75248823 20.967154,6.75058598 C21.0110789,6.74851079 21.0646879,6.7528341 21.1010037,6.71478898 C21.1172593,6.69784162 21.1243495,6.67051831 21.1525375,6.66913485 C21.1698307,6.66809725 21.1924849,6.66636793 21.2037255,6.67587921 C21.222748,6.69213485 21.2025149,6.70769876 21.1909285,6.72032282 C21.153748,6.76078898 21.1661992,6.78465365 21.2163495,6.79226267 C21.2571616,6.79848823 21.2818909,6.82217996 21.2682292,6.85918748 C21.2471315,6.9186762 21.2666728,6.96761605 21.2829285,7.02347319 C21.301951,7.08901455 21.3268533,7.15974387 21.2684022,7.22770628 C21.2466127,7.25330026 21.2471315,7.30051079 21.2421164,7.33872883 C21.2398683,7.35740553 21.2652894,7.3840371 21.2419435,7.39562357 C21.2134097,7.40980402 21.1936954,7.38386417 21.1765751,7.36190177 C21.1525375,7.33060101 21.1189886,7.32230026 21.0913195,7.35014237 C21.0569059,7.38369124 21.0982367,7.40236793 21.1165676,7.42173635 C21.1573796,7.4658341 21.2009586,7.50751079 21.2438458,7.54987921 C21.2545676,7.56025515 21.2675375,7.57910477 21.2775676,7.57772131 C21.4421992,7.5578341 21.4347631,7.71727771 21.4951164,7.79786417 C21.5310864,7.84593936 21.5514924,7.92358598 21.5428458,7.99500703 C21.5355826,8.05293936 21.5504548,8.10360853 21.593342,8.14165365 C21.6761766,8.21549575 21.6991766,8.33741304 21.7999961,8.39742056 C21.8428834,8.42318748 21.861733,8.46693936 21.8485901,8.51414989 C21.8082969,8.65854838 21.8913044,8.77130026 21.943357,8.89027771 C21.9990413,9.01790177 22.0465977,9.14396944 22.0263646,9.28698447 C22.0230789,9.31033034 22.0395074,9.33713485 22.048327,9.36134537 C22.0811841,9.449195 22.0521315,9.54914989 22.1017631,9.63405966 C22.1074698,9.64339801 22.1015901,9.66380402 22.1081616,9.66812733 C22.2383796,9.75113485 22.1904774,9.8969168 22.211748,10.0094958 C22.2319811,10.1189619 22.2200488,10.238804 22.2471992,10.3520747 C22.2504849,10.3662551 22.2465074,10.3859694 22.2548082,10.3954807 C22.370327,10.5272551 22.4351766,10.6956912 22.5655676,10.816398 C22.5778458,10.8285033 22.5996352,10.8461424 22.5970413,10.8566912 C22.5717931,10.9699619 22.6791841,11.0033379 22.7270864,11.0690521 C22.7836352,11.1465258 22.8479661,11.2170822 22.8822067,11.3087364 C22.8880864,11.3253379 22.8963871,11.3460897 22.9098758,11.3540446 C22.9844097,11.3971048 22.9771465,11.4517514 22.937718,11.5133153 C22.9200789,11.5406386 22.9181766,11.567789 22.929936,11.5985709 C22.9361616,11.6148266 22.9358157,11.6369619 22.9131616,11.6437063 C22.8899886,11.6507965 22.8877405,11.6302176 22.8782292,11.6148266 C22.8313646,11.5378717 22.7659961,11.4763078 22.6881766,11.434804 C22.623327,11.4003905 22.5975601,11.3547364 22.5638383,11.2895409 C22.5069435,11.1797288 22.495357,11.0721649 22.4854999,10.9561273 C22.4792743,10.8817664 22.3480187,10.8056762 22.2778082,10.8323078 C22.1873646,10.8663755 22.1626352,10.8323078 22.150357,10.7467063 C22.1430939,10.6948266 22.1584849,10.6140672 22.0536879,10.6180446 C21.9354022,10.6225409 21.9326352,10.6152777 21.9279661,10.7366762 C21.9250262,10.816398 21.9111916,10.8886837 21.8572367,10.9523228 C21.7797631,11.0424206 21.8013796,11.1473905 21.8224774,11.2501123 C21.8444398,11.3573303 21.8191916,11.396586 21.7233871,11.4565935 C21.6677029,11.4916988 21.6500638,11.5689995 21.5955901,11.6117138 C21.5897104,11.6181123 21.5841766,11.6243379 21.5784698,11.6307364 C21.5459586,11.7047514 21.5284924,11.7818792 21.511718,11.8612551 C21.4907931,11.9599995 21.4771315,12.0492326 21.547342,12.1306837 C21.5710337,12.15818 21.5848683,12.1837739 21.5731089,12.2204356 C21.5367931,12.334398 21.6012969,12.4525108 21.5656728,12.5638792 C21.5297029,12.6757664 21.524342,12.7847138 21.5381766,12.9002326 C21.5487255,12.986007 21.509124,13.0691875 21.4932142,13.1534055 C21.4802443,13.2210221 21.4591465,13.2853529 21.4356277,13.3470897 C21.4198909,13.3884206 21.4084774,13.4236988 21.4164322,13.4655484 C21.4330337,13.5523604 21.4292292,13.6339845 21.3827104,13.714398 C21.3413796,13.7847815 21.3591916,13.8485935 21.434936,13.8878491 C21.5054924,13.9245108 21.4947706,13.9884958 21.4840488,14.0457364 C21.475921,14.0887965 21.4743646,14.1261499 21.4864698,14.1681724 C21.4971916,14.2036236 21.4984022,14.2368266 21.4805901,14.2779845 C21.4508458,14.3480221 21.5070488,14.3947138 21.5618683,14.4293003 C21.6683946,14.4969168 21.7112819,14.7016687 21.641936,14.8106161 C21.6248157,14.8377664 21.6028533,14.8403604 21.575357,14.846586 C21.4662367,14.8702777 21.4276728,14.9532852 21.473327,15.0570446 C21.4805901,15.0727815 21.4847405,15.0900747 21.4883721,15.1073679 C21.5030713,15.1687589 21.5220939,15.2016161 21.5914398,15.1519845 C21.6677029,15.096992 21.6967555,15.1359018 21.7335901,15.2209845 C21.7854698,15.3408266 21.7424097,15.490586 21.8705525,15.5881198 C21.9286578,15.6320446 21.9212217,15.7278491 21.8702067,15.7880296 C21.7344548,15.9466085 21.7112819,16.1309544 21.7180262,16.3291348 C21.721139,16.4164657 21.71353,16.5171123 21.6716804,16.5892251 C21.6322518,16.6575333 21.6749661,16.7082025 21.6810187,16.7542025 C21.698139,16.8951424 21.6421089,17.0513003 21.7515751,17.1765033 C21.7629886,17.1894732 21.7640262,17.2143755 21.7847781,17.2152401 C21.808124,17.2164506 21.8098533,17.1943153 21.8152142,17.1777138 C21.8316428,17.1246236 21.8223044,17.0589093 21.920357,17.0670371 C21.9597856,17.0701499 22.0033646,16.9968266 22.0092443,16.9426988 C22.0146052,16.8915108 22.0498834,16.8565785 22.0602593,16.8100597 C22.0630262,16.796398 22.0730563,16.7803153 22.0912142,16.7848115 C22.1085074,16.7891348 22.1083345,16.8036612 22.1085074,16.8202627 C22.1090262,16.9373379 22.1468984,17.0480145 22.173357,17.1604206 C22.1972217,17.2622777 22.2044849,17.3544506 22.1328909,17.4490446 C22.0689059,17.5332627 22.0260187,17.6347739 21.9784623,17.7305785 C21.9310789,17.8267288 21.8548157,17.8042476 21.7778608,17.7873003 C21.7086879,17.7720822 21.6913946,17.721413 21.6874172,17.6600221 C21.6818834,17.5799544 21.6388232,17.5211574 21.5642894,17.501789 C21.4530939,17.4723905 21.381327,17.5128567 21.324951,17.5924055 C21.2806804,17.6546612 21.2220563,17.7091348 21.1617029,17.7568642 C21.1212367,17.7897213 21.0978909,17.8215409 21.0901089,17.8735935 C21.0702217,18.0055409 21.0551766,18.0131499 20.9209811,18.0432401 C20.8685826,18.0549995 20.8077104,18.0714281 20.8186052,18.1521875 C20.8345149,18.2689168 20.8301916,18.2720296 20.7129435,18.2754882 C20.6410037,18.3474281 20.6117781,18.4302627 20.6389285,18.5329845 C20.6539736,18.5905709 20.6140262,18.6267138 20.5681992,18.6545559 C20.5194322,18.674789 20.4831164,18.7021123 20.4512969,18.7505333 C20.4122142,18.8105409 20.3677706,18.8861123 20.267124,18.8599995 C20.2342668,18.8515258 20.2231992,18.8897439 20.2060789,18.9146461 C20.1498758,18.9957514 20.126357,19.1048717 20.0163721,19.1422251 C19.9970037,19.1491424 19.9791916,19.1719694 19.9620713,19.1707589 C19.8588307,19.160383 19.8155977,19.2304206 19.7734022,19.3039168 C19.7666578,19.321383 19.7548984,19.3331424 19.7377781,19.3402326 C19.6803646,19.3753379 19.612748,19.3947063 19.5845601,19.4683755 C19.5717631,19.5014055 19.5456503,19.4766762 19.5268007,19.4631875 C19.4078232,19.3756837 19.3938157,19.3701499 19.3441841,19.5071123 C19.3102894,19.6001499 19.2508007,19.6516837 19.1781691,19.7014882 C19.1779961,19.7070221 19.1779961,19.7130747 19.1776503,19.7191273 C19.1762668,19.7514657 19.1582819,19.773601 19.1290563,19.7851875 C19.1160864,19.7900296 19.1027706,19.7820747 19.1008683,19.771007 C19.0951616,19.737804 19.1141841,19.7163604 19.1415074,19.7011424 C19.1364924,19.6172702 19.0652443,19.6406161 19.019936,19.6317965 C18.9855225,19.6250521 18.9307029,19.6081048 18.9230939,19.676413 C18.9220563,19.6845409 18.9166954,19.6990672 18.9121992,19.699413 C18.7546578,19.7168792 18.7766202,19.8763228 18.7050262,19.9608867 C18.672342,19.9997965 18.6318758,20.0098266 18.5846653,20.0082702 C18.4988909,20.0055033 18.4632668,20.0528867 18.4333495,20.1301875 C18.4096578,20.1919243 18.3792217,20.2655935 18.3100488,20.2953379 C18.26353,20.3155709 18.268718,20.3541348 18.2676804,20.3838792 C18.2668157,20.4162176 18.3045149,20.4029018 18.3263044,20.4051499 C18.4122518,20.4146612 18.4388834,20.473804 18.3959961,20.5497213 C18.3735149,20.5893228 18.340139,20.6145709 18.3033044,20.6311724 C18.2657781,20.6484657 18.2510789,20.6642025 18.2690638,20.7048416 C18.2790939,20.7285333 18.28653,20.7612176 18.2571315,20.7776461 C18.2249661,20.795804 18.1990262,20.7741875 18.1787931,20.7506687 C18.1506052,20.7171198 18.1154999,20.7084732 18.0739961,20.7124506 C18.0328383,20.716601 18.0043044,20.7536085 18.012951,20.7776461 C18.0586052,20.9000822 17.9655676,20.9676988 17.915936,21.0522627 C17.9010638,21.0773379 17.8839435,21.0987815 17.8517781,21.084601 C17.8215149,21.0709394 17.8220337,21.0415409 17.8249736,21.0140446 C17.8273946,20.9903529 17.8336202,20.9685634 17.8254924,20.9436612 C17.8043946,20.877601 17.7533796,20.8611724 17.7066879,20.9123604 C17.6560187,20.9664882 17.6110563,21.025977 17.5654022,21.0842551 C17.5436127,21.1122702 17.5145601,21.1425333 17.4834322,21.1231649 C17.4213495,21.0839093 17.41253,21.1273153 17.3879736,21.1662251 C17.3395525,21.2424882 17.2926879,21.3116612 17.2018984,21.3604281 C17.1220037,21.4038341 17.0455676,21.4771574 16.978124,21.5490973 C16.9506277,21.5784958 16.9220939,21.6027063 16.8774774,21.5975183 C16.8636428,21.5963078 16.8409886,21.5990747 16.8356277,21.6078942 C16.7794247,21.7009318 16.6690939,21.7002401 16.589718,21.7524657 C16.556342,21.7742551 16.520545,21.7967364 16.5020413,21.8290747 C16.4124623,21.9847138 16.2480037,22.0319243 16.1053345,22.1107815 C16.0876954,22.1204657 16.0729961,22.119601 16.0586428,22.1024807 C16.004342,22.037977 15.9451992,22.0334807 15.9052518,22.1047288 C15.8599435,22.1856612 15.8013195,22.1932702 15.7271315,22.170789 C15.646718,22.1458867 15.5823871,22.1692326 15.5241089,22.2259544 C15.4547631,22.2928792 15.3951014,22.2866536 15.3108834,22.2301048 C15.2711089,22.2031273 15.2036653,22.1149318 15.1751315,22.2470521 C15.1734022,22.2543153 15.1645826,22.2638266 15.1571465,22.2664206 C14.9622518,22.3328266 15.022951,22.5093905 14.9932067,22.6466988 C14.9895751,22.6638191 15.0004698,22.6748867 15.0175901,22.6774807 C15.0364398,22.6809394 15.0532142,22.6764431 15.0668758,22.6622627 C15.0864172,22.6416837 15.0706804,22.6065785 15.0978307,22.5901499 C15.1229059,22.5405183 15.15853,22.5470897 15.191733,22.5768341 C15.2251089,22.6069243 15.2458608,22.6536161 15.2067781,22.6847439 C15.1573195,22.7236536 15.102327,22.7777815 15.0264097,22.7336837 C14.9715901,22.7546085 14.9345826,22.7514958 14.9331992,22.6771348 C14.9325074,22.6390897 14.9136578,22.6024281 14.9165977,22.5623078 C14.918154,22.5394807 14.9228232,22.510601 14.8910037,22.502992 C14.8638533,22.4960747 14.8311691,22.4948642 14.818718,22.5230521 C14.7941616,22.5783905 14.7287931,22.5802927 14.6968007,22.6259469 C14.6722443,22.6612251 14.6357555,22.6378792 14.6215751,22.6150521 C14.5971916,22.5749318 14.583357,22.5280672 14.5664097,22.4829318 C14.5515375,22.4429845 14.5888909,22.4407364 14.6096428,22.4284582 C14.6385225,22.4113379 14.6450939,22.428977 14.6478608,22.454398 C14.6504548,22.4772251 14.6625601,22.497804 14.688154,22.4929619 C14.7140939,22.4881198 14.7415901,22.4768792 14.7505826,22.4474807 C14.7580187,22.4239619 14.7464322,22.4037288 14.7248157,22.3964657 C14.688154,22.3838416 14.6772593,22.3717364 14.7146127,22.3461424 C14.7338082,22.3328266 14.7408984,22.3129394 14.729139,22.290804 C14.7166879,22.2671123 14.6980112,22.2714356 14.675357,22.2759318 C14.5750563,22.2973755 14.4780413,22.3338642 14.3749736,22.3411273 C14.3647706,22.3416461 14.345748,22.3544431 14.3462668,22.3594582 C14.3568157,22.4357213 14.2637781,22.4704807 14.2725977,22.5429394 C14.276921,22.5768341 14.2608383,22.5879018 14.2352443,22.5901499 C14.2030789,22.5929168 14.1741992,22.6475634 14.1406503,22.6027739 C14.1148834,22.5687063 14.0685375,22.5733755 14.044327,22.5398266 C14.0337781,22.5246085 14.0154473,22.5154431 13.9976352,22.5299694 C13.9784398,22.5451875 13.9734247,22.5666311 13.988124,22.5859995 C14.051936,22.6698717 13.9927931,22.7172551 13.9348608,22.7639469 C13.8999285,22.791789 13.8587706,22.8128867 13.8276428,22.8441875 C13.8049886,22.8673604 13.791327,22.8834431 13.7646954,22.8536988 C13.7434247,22.8303529 13.7371992,22.80718 13.7615826,22.7827965 C13.7792217,22.7651574 13.8195149,22.7603153 13.806545,22.72521 C13.793921,22.6897589 13.7557029,22.7046311 13.7280337,22.6973679 C13.607154,22.6669318 13.5404022,22.7385258 13.4822969,22.8246461 C13.4663871,22.8483379 13.4558383,22.8578491 13.4255751,22.8464356 C13.3474097,22.8182476 13.2922443,22.7248642 13.3398007,22.6698717 C13.415718,22.582195 13.3249285,22.5398266 13.3029661,22.4808567 C13.2927631,22.4531875 13.2569661,22.4350296 13.2327555,22.4128942 C13.213733,22.395601 13.1979961,22.3660296 13.1675601,22.3992326 C13.1457706,22.4236161 13.1469811,22.444195 13.1644473,22.4716912 C13.1827781,22.5005709 13.249357,22.5154431 13.2142518,22.5581574 C13.2014741,22.5741075 13.1806136,22.5711078 13.1592901,22.5647411 Z M12.9596178,22.3920708 C12.9622826,22.3922515 12.9649615,22.3924795 12.9676526,22.3927547 C12.9683411,22.3928226 12.9690278,22.3928928 12.9697126,22.3929652 C12.9701665,22.3746453 12.9351742,22.3504718 12.8990304,22.342849 C12.8939599,22.3416445 12.8883599,22.3406056 12.8824899,22.3397793 C12.9110077,22.3530455 12.9358576,22.3704647 12.9596178,22.3920708 Z M21.3173074,18.7933168 C21.3344277,18.7929709 21.3416909,18.8088807 21.3427285,18.8242717 C21.3449766,18.8536702 21.349127,18.8835875 21.3302774,18.9112567 C21.2839315,18.9806025 21.2420819,19.0540988 21.1919315,19.1205048 C21.1466232,19.1810311 21.1772322,19.2616176 21.1274277,19.3202416 C21.1014879,19.3511965 21.1049465,19.4004822 21.0701871,19.4281514 C20.9740367,19.5974521 20.8042172,19.7046702 20.7087586,19.88158 C20.6494428,19.9922567 20.556924,20.0973995 20.4701119,20.1992567 C20.3986909,20.282783 20.3262322,20.3555875 20.2328488,20.4116176 C20.1842548,20.4404973 20.2020668,20.515377 20.1515706,20.5470236 C20.091736,20.5838582 20.0471195,20.6347003 20.0130518,20.6957454 C19.9386909,20.8299409 19.8089916,20.9134672 19.710939,21.0243168 C19.5862548,21.1659484 19.4129766,21.2444597 19.2860443,21.3802115 C19.08233,21.4941739 18.9112999,21.6517153 18.7340443,21.8000912 C18.6956533,21.8320837 18.6572623,21.8564672 18.6097059,21.8664973 C18.5358638,21.8815424 18.4782774,21.9202792 18.4346984,21.9813243 C18.394751,22.0373544 18.2079841,22.102204 18.1493601,22.0811063 C18.113736,22.0684822 18.1052623,22.0380461 18.1173676,22.0083018 C18.1350067,21.961783 18.1529916,21.9161288 18.2066007,21.8912266 C18.2792322,21.8564672 18.3349164,21.8009559 18.3762473,21.7284973 C18.3989014,21.688377 18.4326232,21.6494672 18.4808713,21.6339033 C18.5064653,21.6257755 18.5216834,21.6105574 18.532924,21.5884221 C18.5652623,21.5232266 18.5899916,21.4530161 18.680954,21.4443694 C18.706721,21.4419484 18.7051646,21.4111664 18.7018789,21.3840161 C18.6892548,21.2795649 18.7316232,21.2238807 18.8378037,21.2197303 C18.9254804,21.2162717 18.9681946,21.1849709 19.0117736,21.1016176 C19.0582924,21.0106551 19.1253901,20.9212491 19.2134127,20.8563995 C19.2189465,20.8273469 19.2275931,20.8008882 19.2146232,20.7694145 C19.1772698,20.6793168 19.2172172,20.6042642 19.2706533,20.5340536 C19.3090443,20.4837303 19.3266834,20.4261439 19.3259916,20.3647529 C19.325127,20.2689484 19.4133225,20.2098055 19.5035931,20.2106702 C19.5890217,20.2110161 19.6846533,20.2110161 19.7617811,20.1641514 C19.7996533,20.1413243 19.8420217,20.1198807 19.8772999,20.1229935 C19.9699916,20.1306025 20.0139164,20.0660988 20.0571495,20.0109333 C20.1382548,19.9075198 20.2074277,19.7951138 20.2831721,19.687204 C20.2994277,19.6635123 20.2906082,19.6477755 20.2727961,19.6332491 C20.2494503,19.6142266 20.2331946,19.5739333 20.247548,19.5626927 C20.3276157,19.5026852 20.3134352,19.3664145 20.4305104,19.3385724 C20.4654428,19.3300988 20.4849841,19.3034672 20.5036608,19.2756251 C20.5276984,19.2398281 20.5598638,19.222189 20.6039616,19.2325649 C20.6662172,19.2623093 20.6660443,19.2154446 20.6537661,19.1831063 C20.6295555,19.1201589 20.6586082,19.0674145 20.6731345,19.0119033 C20.6753826,19.0030837 20.6736533,18.9889033 20.6786683,18.9861364 C20.7805255,18.9321815 20.7772398,18.7860536 20.8920668,18.7436852 C20.9071119,18.6705348 20.9832022,18.6439033 21.0145029,18.5826852 C21.0202097,18.5717905 21.0375029,18.5660837 21.0451119,18.575595 C21.0615405,18.5953093 21.0624052,18.6250536 21.0487435,18.6430386 C21.0122548,18.690595 21.0004954,18.7457604 20.9932322,18.8012717 C20.9816458,18.8867003 20.9740367,18.9728206 20.9660819,19.058595 C20.9641796,19.0796927 20.9662548,19.1009634 20.9901195,19.1125499 C21.0281646,19.0988882 21.019518,19.0575574 21.03733,19.0312717 C21.0568713,19.0027379 21.0530668,18.9382341 21.1182623,18.9882115 C21.1388413,19.0037755 21.1545781,18.976798 21.1647811,18.9584672 C21.1969465,18.9019183 21.2716533,18.8809935 21.2887736,18.8113018 C21.2908488,18.8033469 21.3072774,18.7933168 21.3173074,18.7933168 Z M22.9476991,14.4043021 C23.1064342,14.4666304 22.9867777,14.5535417 23.0172106,14.6265161 C23.032427,14.6625195 22.8757669,14.6805211 22.7958806,14.7018134 C22.5804296,14.7598833 22.5344345,14.7397524 22.5389303,14.5864479 C22.4867102,14.4312078 22.7474646,14.3551363 22.899629,14.2459649 C22.9262578,14.2268019 22.9798611,14.2268019 23.0116773,14.2475135 C23.0441851,14.2689993 23.0054524,14.2839039 22.9819361,14.2970664 C22.9241828,14.3290048 22.8529422,14.3671374 22.9476991,14.4043021 Z M6.14486428,21.8435921 C6.1737551,21.9046339 6.24527748,21.9494579 6.29319396,22.0030665 C6.32596037,22.0409078 6.42425961,22.0834794 6.27170201,22.1123109 C6.22449019,22.120645 6.24703912,22.1510532 6.27733924,22.167271 C6.33476855,22.1981297 6.31539056,22.2305651 6.27910088,22.2589462 C6.2389356,22.2895796 6.18502956,22.3105275 6.11843975,22.29904 C6.03669988,22.2841737 5.97786127,22.2416022 5.88872253,22.2310156 C5.83728279,22.224934 5.84961423,22.1767313 5.88907486,22.1665952 C6.00710441,22.1357365 5.98807875,22.0550983 6.048679,22.0046432 C6.09694781,21.9638736 6.06770466,21.9296362 5.9965346,21.9140942 C5.94262857,21.9023814 5.87145851,21.8881909 5.88097134,21.8514758 C5.89471209,21.7958399 6.00076253,21.8305279 6.04057548,21.8048498 C6.10505133,21.794939 6.13147585,21.8143101 6.14486428,21.8435921 Z M5.35511947,21.3592814 C5.29158711,21.4360709 5.35675901,21.4787562 5.41250353,21.5359632 C5.48587316,21.6112125 5.41701228,21.6668794 5.25797644,21.6673194 C5.17558932,21.6732602 5.11410639,21.6523576 5.08172538,21.607252 C5.03991699,21.5480647 5.05262346,21.477656 4.9476926,21.4316704 C4.93662567,21.4263897 4.94236408,21.396686 4.95589032,21.3918454 C5.07762652,21.3491602 5.08500447,21.274791 5.1255832,21.2123033 C5.16821136,21.145415 5.22887452,21.1652175 5.26658405,21.2030621 C5.31454073,21.2521282 5.38627082,21.3209967 5.35511947,21.3592814 Z M15.1726017,23.0374072 C15.18562,23.0304519 15.2116566,23.0339296 15.2315669,23.032592 C15.2863202,23.0387448 15.3950611,23.0662987 15.3315013,23.0893049 C15.0990868,23.1738392 15.2373102,23.3236468 15.1745162,23.4343975 C15.1549888,23.4681042 15.1940436,23.5200019 15.1109564,23.5312374 C15.0320809,23.541938 15.0420361,23.4865627 15.0148509,23.4592763 C14.9991524,23.444028 14.9731158,23.4303848 14.9692869,23.414334 C14.9524397,23.3530733 14.8126847,23.3378251 14.8609289,23.2506156 C14.9202769,23.1446802 15.0585004,23.1005405 15.1726017,23.0374072 Z M13.321747,22.8484156 C13.387747,22.925535 13.520747,22.9358943 13.590247,23.0203035 C13.660247,23.1066312 13.619247,23.1691708 13.575747,23.2409186 C13.549247,23.2850416 13.503747,23.3172706 13.435247,23.3122828 C13.328247,23.3042256 13.305247,23.230943 13.275747,23.1726239 C13.233247,23.0870636 13.207747,22.9965155 13.175747,22.9086531 C13.160247,22.8722037 13.176247,22.8434278 13.215247,22.8234765 C13.261747,22.8004558 13.293747,22.8173377 13.321747,22.8484156 Z M9.51317209,1.13152798 C9.36967209,1.10802798 9.35817209,0.97102798 9.34867209,0.85102798 C9.35267209,0.78052798 9.34667209,0.68302798 9.44217209,0.70252798 C9.57317209,0.72952798 9.59167209,0.85602798 9.59667209,0.96952798 C9.59967209,1.03752798 9.58867209,1.14402798 9.51317209,1.13152798 Z M13.1592901,22.5647411 C13.1348491,22.4673746 13.073707,22.4039649 12.9697126,22.3929652 C12.9696547,22.3953046 12.9690187,22.3975486 12.9677333,22.3996505 C12.9650398,22.3970691 12.9623359,22.3945426 12.9596178,22.3920708 C12.8751394,22.3863434 12.8047749,22.4281751 12.8086526,22.5207547 C12.8121526,22.6262547 12.8896526,22.6892547 12.9961526,22.6987547 C12.9986914,22.6989882 13.001208,22.6991812 13.003702,22.6993334 C13.034221,22.676813 13.0380232,22.640864 13.0397005,22.6036084 C13.0010162,22.5404288 12.8350255,22.4999939 12.9630353,22.4046501 C12.9650946,22.403104 12.9666462,22.4014281 12.9677333,22.3996505 C12.9765919,22.4081404 12.985338,22.4172235 12.9941089,22.4269018 C13.0288683,22.4651198 12.9999886,22.5623078 13.1032292,22.5508942 C13.1178166,22.5493677 13.1387678,22.5586137 13.1592901,22.5647411 Z M21.308521,9.06755064 L21.308021,9.06755064 C21.308021,9.06805064 21.308521,9.06805064 21.308521,9.06855064 L21.308521,9.06755064 Z M21.2360811,8.74262808 L21.2360811,8.74362808 C21.2360811,8.74312808 21.2365811,8.74312808 21.2365811,8.74262808 L21.2360811,8.74262808 Z"/></g></g></g><g id="SvgjsG1200" featureKey="nameRightFeature-0" transform="matrix(0.8017516105503872,0,0,0.8017516105503872,110.99999980884752,-9.139968054430447)" fill="#000"><path d="M6.84 28.64 l0 1.16 c-2.48 0 -4.52 2 -4.52 4.52 l0 4.52 l4.52 0 l0 1.16 l-4.52 0 l0 10.2 l-1.16 0 l0 -10.2 l-1.16 0 l0 -1.16 l1.16 0 l0 -4.72 c0.12 -3.04 2.6 -5.48 5.68 -5.48 z M37.54 34.32 l0 5.68 l-1.16 0 l0 -5.68 c0 -2.52 -2.04 -4.52 -4.52 -4.52 s-4.52 2 -4.52 4.52 l0 5.68 l-1.16 0 l0 -11.36 l1.16 0 l0 2.2 c1.04 -1.36 2.68 -2.2 4.52 -2.2 c3.12 0 5.68 2.52 5.68 5.68 z M49.690000000000005 29.8 c-2.48 0 -4.52 2 -4.52 4.52 c0 2.48 2.04 4.48 4.52 4.48 s4.52 -2 4.52 -4.48 c0 -2.52 -2.04 -4.52 -4.52 -4.52 z M49.690000000000005 28.64 c3.12 0 5.68 2.52 5.68 5.68 c0 3.12 -2.56 5.68 -5.68 5.68 c-3.16 0 -5.68 -2.56 -5.68 -5.68 c0 -3.16 2.52 -5.68 5.68 -5.68 z M67.48 38.8 l0 1.2 c-3.12 0 -5.68 -2.56 -5.68 -5.68 l0 -4.52 l-1.16 0 l0 -1.16 l1.16 0 l0 -17.24 l1.16 0 l0 17.24 l4.52 0 l0 1.16 l-4.52 0 l0 4.52 c0 2.48 2.04 4.48 4.52 4.48 z M74.55 40 l0 -11.36 l1.16 0 l0 11.36 l-1.16 0 z M75.11 24 c0.68 0 1.2 0.52 1.2 1.16 s-0.52 1.16 -1.2 1.16 c-0.64 0 -1.16 -0.52 -1.16 -1.16 s0.52 -1.16 1.16 -1.16 z M88.46000000000001 29.8 c-2.48 0 -4.52 2 -4.52 4.52 c0 2.48 2.04 4.48 4.52 4.48 s4.52 -2 4.52 -4.48 c0 -2.52 -2.04 -4.52 -4.52 -4.52 z M88.46000000000001 28.64 c3.12 0 5.68 2.52 5.68 5.68 c0 3.12 -2.56 5.68 -5.68 5.68 c-3.16 0 -5.68 -2.56 -5.68 -5.68 c0 -3.16 2.52 -5.68 5.68 -5.68 z M111.97 34.32 l0 5.68 l-1.16 0 l0 -5.68 c0 -2.52 -2.04 -4.52 -4.52 -4.52 s-4.52 2 -4.52 4.52 l0 5.68 l-1.16 0 l0 -11.36 l1.16 0 l0 2.2 c1.04 -1.36 2.68 -2.2 4.52 -2.2 c3.12 0 5.68 2.52 5.68 5.68 z M120.36 40.12 l0 -1.16 c1.08 0 1.92 -0.84 1.92 -1.92 c0 -1.16 -0.88 -2 -1.84 -2.92 c-1 -0.96 -2 -1.92 -2 -3.28 c0 -1.32 1.04 -2.36 2.36 -2.36 l0 1.16 c-0.68 0 -1.2 0.52 -1.2 1.2 c0 0.88 0.8 1.64 1.64 2.44 c1.04 1 2.2 2.12 2.2 3.76 c0 1.72 -1.36 3.08 -3.08 3.08 z"/></g>
			</g>
		</svg>
	